<svg width="965" height="626" viewBox="0 0 965 626" fill="none" xmlns="http://www.w3.org/2000/svg">
<mask id="mask0_1141_2016" style="mask-type:alpha" maskUnits="userSpaceOnUse" x="0" y="0" width="965" height="626">
<path d="M0 0H965V626H0V0Z" fill="#100F0F"/>
</mask>
<g mask="url(#mask0_1141_2016)">
<g opacity="0.5">
<g opacity="0.1">
<path d="M968.588 56.5704L995.473 30.4219V142.75L968.588 169.635V56.5704Z" fill="white"/>
<path d="M908.557 309.585L950.174 267.968V371.457L908.557 413.81V309.585Z" fill="white"/>
<path d="M858.838 350.465L890.142 320.265V431.488L858.838 464.266V350.465Z" fill="white"/>
<path d="M840.055 356.357H725.886V472H840.055V356.357Z" fill="white"/>
<path d="M770.08 301.851L734.725 337.575H845.58L880.935 301.851H770.08Z" fill="white"/>
</g>
<path opacity="0.1" d="M871.36 17.1636C874.273 17.5277 981.232 17.1718 982.579 17.1637C982.58 17.1636 982.582 17.1636 982.583 17.1636C982.596 17.1636 982.594 17.1636 982.579 17.1637C981.646 17.2197 965.506 34.1189 957.54 42.5755H846.316L871.36 17.1636Z" fill="white"/>
<g opacity="0.1">
<path d="M888.301 123.967H774.132V283.804H888.301V123.967Z" fill="white"/>
<path d="M938.02 61.7264H827.534L782.971 105.184H893.826L938.02 61.7264Z" fill="white"/>
</g>
<g opacity="0.1">
<path d="M658.489 274.966L693.477 239.61V351.57L658.489 387.662V274.966Z" fill="white"/>
<path d="M754.981 181.789C741.354 195.661 713.733 223.773 712.259 225.247V333.892L754.981 291.17V181.789Z" fill="white"/>
</g>
<path opacity="0.1" d="M583.358 324.685L626.816 280.858H515.225L471.03 324.685H583.358Z" fill="white"/>
<g opacity="0.1">
<path d="M462.56 458.742V343.467H577.466V458.742H462.56Z" fill="white"/>
<path d="M640.075 293.748L595.88 337.943V451.008L640.075 405.708V293.748Z" fill="white"/>
</g>
<path opacity="0.1" d="M684.638 221.932H573.415L532.903 262.444H645.231L684.638 221.932Z" fill="white"/>
<path opacity="0.1" d="M773.763 -23.3482L815.38 -64.9648L815.748 46.6266L773.027 88.6115L773.763 -23.3482Z" fill="white"/>
<path opacity="0.1" d="M712.627 37.0511L754.981 -4.93384L755.349 156.008L712.627 199.466V37.0511Z" fill="white"/>
<path opacity="0.1" d="M834.531 -84.8524L870.992 -120.576V-8.24838L834.531 27.4756V-84.8524Z" fill="white"/>
<path opacity="0.1" d="M743.564 -19.6653H631.604L585.568 26.3708H697.528L743.564 -19.6653Z" fill="white"/>
<path opacity="0.1" d="M693.476 45.1534H578.57V203.149H693.476V45.1534Z" fill="white"/>
<path opacity="0.1" d="M516.33 143.486L559.419 100.765L559.788 209.778L516.33 252.868V143.486Z" fill="white"/>
<path opacity="0.1" d="M906.716 118.443L949.806 75.3531V240.715L906.716 284.541V118.443Z" fill="white"/>
<rect opacity="0.1" x="335.5" y="198.73" width="109.75" height="109.75" fill="#D9D9D9"/>
<rect opacity="0.1" x="382.641" y="-38.448" width="115.643" height="160.574" fill="#D9D9D9"/>
<path opacity="0.1" d="M516.698 -43.9724L560.892 -87.0621V76.0897L516.698 118.443V-43.9724Z" fill="#D9D9D9"/>
<path opacity="0.1" d="M576.729 -104.372L608.034 -135.308V-22.6117L576.729 8.32458V-104.372Z" fill="#D9D9D9"/>
<path opacity="0.1" d="M498.284 158.586L462.56 194.31L462.928 306.638L498.284 270.914V158.586Z" fill="#D9D9D9"/>
<g opacity="0.1">
<path d="M378.958 139.804L491.286 139.804L449.67 181.789L336.973 181.789L378.958 139.804Z" fill="#D9D9D9"/>
</g>
</g>
</g>
</svg>
