<svg width="967" height="605" viewBox="0 0 967 605" fill="none" xmlns="http://www.w3.org/2000/svg">
<mask id="mask0_1141_1619" style="mask-type:alpha" maskUnits="userSpaceOnUse" x="0" y="0" width="967" height="626">
<path d="M875.266 625H0V452.973V390.185V137.751V0.000976562L967 0V171.867V238.34V490.935L875.266 625Z" fill="#72F395"/>
</mask>
<g mask="url(#mask0_1141_1619)">
<g opacity="0.1">
<mask id="mask1_1141_1619" style="mask-type:alpha" maskUnits="userSpaceOnUse" x="-424" y="208" width="3361" height="1964">
<g clip-path="url(#clip0_1141_1619)">
<path d="M43.0703 471.475L43.0703 576.82L-23.5448 643.42L-23.5448 715.15L0.18512 715.15L48.1851 715.15L144.515 618.835L144.515 513.49L211.115 446.89L211.115 446.875L211.13 375.145L166.01 375.16L139.4 375.16L43.0703 471.475Z" fill="#231F20"/>
<path d="M-53.3191 673.149L-53.3191 778.494L-119.919 845.094L-119.919 916.824L-96.1893 916.824L-48.1893 916.824L48.1259 820.509L48.1259 715.164L114.741 648.565L114.726 648.549L114.741 576.819L69.6358 576.834L43.0108 576.834L-53.3191 673.149Z" fill="#231F20"/>
<path d="M154.491 518.724L154.491 624.069L87.8761 690.684L87.8761 762.414L111.606 762.414L159.606 762.414L255.936 666.084L255.936 560.754L322.536 494.139L322.551 422.409L277.431 422.409L250.806 422.424L154.491 518.724Z" fill="#231F20"/>
<path d="M-68.3042 424.21L-68.3042 529.555L-134.904 596.155L-134.919 667.885L-111.189 667.885L-63.1744 667.885L33.1408 571.57L33.1408 466.225L99.7406 399.625L99.7406 399.61L99.7556 327.88L54.6357 327.895L28.0257 327.895L-68.3042 424.21Z" fill="#231F20"/>
<path d="M-164.679 625.885L-164.679 731.23L-231.294 797.83L-231.294 869.56L-207.564 869.56L-159.564 869.56L-63.2491 773.245L-63.2491 667.9L3.36575 601.3L3.35073 601.285L3.36575 529.555L-41.7392 529.57L-68.3642 529.57L-164.679 625.885Z" fill="#231F20"/>
<path d="M377.27 613.42L377.27 718.765L310.656 785.38L310.656 857.11L334.385 857.11L382.385 857.11L478.715 760.78L478.715 655.435L545.315 588.835L545.3 588.835L545.315 517.105L500.211 517.105L473.586 517.12L377.27 613.42Z" fill="#231F20"/>
<path d="M488.691 660.685L488.691 766.03L422.076 832.63L422.076 904.36L445.806 904.36L493.806 904.36L590.136 808.045L590.136 702.7L656.736 636.1L656.721 636.085L656.736 564.355L611.631 564.37L585.006 564.37L488.691 660.685Z" fill="#231F20"/>
<path d="M265.895 566.155L265.895 671.5L199.281 738.115L199.281 809.845L223.01 809.845L271.01 809.845L367.34 713.515L367.34 608.17L433.94 541.57L433.94 469.84L388.836 469.84L362.211 469.84L265.895 566.155Z" fill="#231F20"/>
<path d="M904.684 351.595L904.684 456.925L838.069 523.54L838.069 595.27L861.799 595.27L909.799 595.27L1006.11 498.955L1006.11 393.61L1072.73 327.01L1072.71 326.995L1072.73 255.265L1027.62 255.28L1001 255.28L904.684 351.595Z" fill="#231F20"/>
<path d="M808.294 553.27L808.294 658.615L741.679 725.215L741.679 796.945L765.409 796.945L813.409 796.945L909.739 700.63L909.739 595.285L976.339 528.685L976.339 528.67L976.339 456.94L931.234 456.955L904.609 456.955L808.294 553.27Z" fill="#231F20"/>
<path d="M1016.1 398.845L1016.1 504.19L949.489 570.805L949.489 642.535L973.219 642.535L1021.22 642.535L1117.53 546.205L1117.53 440.86L1184.15 374.26L1184.13 374.26L1184.15 302.53L1139.04 302.53L1112.42 302.53L1016.1 398.845Z" fill="#231F20"/>
<path d="M919.714 600.52L919.714 705.865L853.099 772.48L853.099 844.21L876.829 844.21L924.829 844.21L1021.16 747.88L1021.16 642.535L1087.76 575.935L1087.76 504.205L1042.65 504.205L1016.03 504.205L919.714 600.52Z" fill="#231F20"/>
<path d="M793.309 304.315L793.309 409.66L726.694 476.275L726.694 548.005L750.424 548.005L798.424 548.005L894.739 451.69L894.739 346.345L961.354 279.73L961.339 279.73L961.354 208L916.249 208L889.624 208.015L793.309 304.315Z" fill="#231F20"/>
<path d="M696.92 505.99L696.92 611.335L630.305 677.95L630.305 749.68L654.035 749.68L702.035 749.68L798.365 653.365L798.365 548.02L864.965 481.405L864.98 409.675L819.86 409.69L793.235 409.69L696.92 505.99Z" fill="#231F20"/>
<path d="M1031.12 647.95L1031.12 753.295L964.504 819.895L964.504 891.625L988.235 891.625L1036.23 891.625L1132.56 795.31L1132.56 689.965L1199.16 623.365L1199.15 623.35L1199.16 551.62L1154.06 551.635L1127.43 551.635L1031.12 647.95Z" fill="#231F20"/>
<path d="M43.2954 471.205L43.2954 576.535L-23.3044 643.15L-23.3044 714.88L0.410461 714.88L48.4255 714.88L144.74 618.565L144.74 513.22L211.34 446.62L211.34 446.605L211.355 374.875L166.251 374.89L139.626 374.89L43.2954 471.205Z" fill="#231F20"/>
<path d="M251.045 316.794L251.045 422.139L184.43 488.739L184.43 560.469L208.16 560.469L256.16 560.469L352.475 464.154L352.475 358.809L419.09 292.209L419.075 292.194L419.09 220.464L373.985 220.479L347.36 220.479L251.045 316.794Z" fill="#231F20"/>
<path d="M154.715 518.455L154.715 623.8L88.1151 690.415L88.1 762.145L111.83 762.145L159.845 762.145L256.16 665.815L256.16 560.47L322.76 493.87L322.775 422.14L277.655 422.14L251.045 422.14L154.715 518.455Z" fill="#231F20"/>
<path d="M-68.0796 423.925L-68.0796 529.27L-134.679 595.885L-134.679 667.615L-110.965 667.615L-62.9495 667.615L33.3654 571.3L33.3654 465.955L99.9655 399.34L99.9805 327.61L54.8756 327.61L28.2506 327.625L-68.0796 423.925Z" fill="#231F20"/>
<path d="M473.811 411.489L473.811 516.834L407.211 583.434L407.211 655.164L430.926 655.164L478.941 655.164L575.256 558.849L575.256 453.504L641.856 386.904L641.856 386.889L641.871 315.159L596.766 315.174L570.141 315.174L473.811 411.489Z" fill="#231F20"/>
<path d="M377.496 613.149L377.496 718.494L310.881 785.094L310.881 856.824L334.611 856.824L382.611 856.824L478.941 760.509L478.941 655.164L545.541 588.564L545.541 588.549L545.541 516.819L500.436 516.834L473.811 516.834L377.496 613.149Z" fill="#231F20"/>
<path d="M585.23 458.74L585.23 564.085L518.63 630.7L518.63 702.43L542.345 702.43L590.36 702.43L686.675 606.1L686.675 500.755L753.275 434.155L753.29 362.425L708.185 362.425L681.56 362.425L585.23 458.74Z" fill="#231F20"/>
<path d="M488.915 660.4L488.915 765.745L422.3 832.36L422.3 904.09L446.03 904.09L494.03 904.09L590.36 807.76L590.36 702.43L656.96 635.815L656.96 564.085L611.855 564.085L585.23 564.1L488.915 660.4Z" fill="#231F20"/>
<path d="M362.436 364.21L362.436 469.555L295.836 536.17L295.836 607.9L319.566 607.9L367.566 607.9L463.881 511.585L463.881 406.24L530.496 339.625L530.481 339.625L530.496 267.895L485.391 267.91L458.766 267.91L362.436 364.21Z" fill="#231F20"/>
<path d="M266.12 565.885L266.12 671.23L199.505 737.83L199.505 809.56L223.235 809.56L271.235 809.56L367.565 713.245L367.565 607.9L434.165 541.3L434.165 541.285L434.165 469.555L389.06 469.57L362.435 469.57L266.12 565.885Z" fill="#231F20"/>
</g>
</mask>
<g mask="url(#mask1_1141_1619)">
<rect x="-134.5" y="65.4967" width="2833.5" height="2278.5" fill="black"/>
</g>
</g>
</g>
<defs>
<clipPath id="clip0_1141_1619">
<rect width="3360.69" height="1963.4" fill="white" transform="translate(2936.69 2171.4) rotate(-180)"/>
</clipPath>
</defs>
</svg>
