<svg xmlns="http://www.w3.org/2000/svg" version="1.1" xmlns:xlink="http://www.w3.org/1999/xlink" xmlns:svgjs="http://svgjs.dev/svgjs" viewBox="0 0 800 800"><defs><linearGradient x1="50%" y1="0%" x2="50%" y2="100%" id="ccchaos-grad"><stop stop-color="hsl(340, 45%, 50%)" stop-opacity="1" offset="0%"></stop><stop stop-color="hsl(340, 45%, 80%)" stop-opacity="1" offset="100%"></stop></linearGradient></defs><g stroke-width="2" stroke="url(#ccchaos-grad)" fill="none" stroke-linecap="round"><path d="M427.71 -114.15C437.22 -114.12 446.72 -113.96 456.22 -113.66 465.72 -113.47 475.22 -113.14 484.7 -112.66 494.19 -112.25 503.66 -111.66 513.1 -110.88 522.54 -110.09 531.93 -109.07 541.27 -107.79 550.58 -106.41 559.82 -104.73 568.97 -102.73 578.06 -100.57 587.04 -98.05 595.87 -95.19 604.62 -92.15 613.19 -88.78 621.55 -85.1 629.8 -81.32 637.79 -77.29 645.5 -73.06 653.06 -68.85 660.28 -64.53 667.16 -60.15 673.82 -55.93 680.1 -51.73 685.95 -47.58 694.14 -41.78 707.8 -31.01 713.22 -25.95 717.79 -21.15 724.33 -11.16 726.43 -5.65 728.08 0.34 730.23 14.63 731.12 23.06 731.97 29.16 732.94 35.7 734.1 42.68 735.76 49.97 737.77 57.64 740.23 65.65 743.38 73.91 747.11 82.43 751.49 91.18 756.72 100.05 762.67 109.06 769.4 118.16 777 127.26 785.38 136.39 794.5 145.51 804.4 154.54 814.95 163.5 826.06 172.39 837.7 181.11 849.69 189.74 861.89 198.26 874.22 206.59 886.46 214.82 898.43 222.96 910.05 230.91 921.04 238.79 931.24 246.61 940.58 254.27 948.8 261.9 955.73 269.53 961.42 277.02 965.59 284.54 968.17 292.12 969.31 299.59 968.79 307.14 966.61 314.82 963.1 322.4 958.07 330.13 951.65 338.02 944.27 345.86 935.83 353.87 926.55 362.09 916.94 370.27 906.95 378.68 896.86 387.31 887.19 395.93 877.92 404.8 869.3 413.94 861.81 423.07 855.47 432.38 850.41 441.84 846.89 451.32 844.78 460.98 844.11 470.8 845.02 480.64 847.27 490.65 850.72 500.81 855.49 510.98 861.17 521.29 867.57 531.71 874.77 542.12 882.27 552.62 889.85 563.17 897.6 573.64 905.01 584.11 911.88 594.52 918.31 604.78 923.84 614.89 928.34 624.79 931.95 634.43 934.31 643.74 935.34 652.64 935.24 661.15 933.75 669.13 930.9 676.48 926.9 683.31 921.6 689.41 915.09 694.7 907.6 699.38 899.08 703.18 889.65 706.08 879.53 708.36 868.74 709.75 857.42 710.28 845.75 710.35 833.8 709.69 821.68 708.42 809.54 707.02 797.45 705.29 785.52 703.4 773.82 701.9 762.42 700.63 751.39 699.84 740.78 700.02 730.62 701.1 720.93 703.31 711.75 707.02 703.06 712.19 694.85 718.95 687.16 727.45 679.93 737.63 673.1 749.46 666.75 762.81 660.76 777.52 655.06 793.36 649.75 809.96 644.66 827.02 639.74 844.12 635.11 860.78 630.57 876.59 626.06 891.06 621.74 903.78 617.39 914.34 612.95 922.35 606.39 928.91 592.52 923.11 585.08 911.54 580.03 901.37 574.73 889.76 569.16 877.34 563.56 865.17 557.68 853.61 551.53 843.37 545.32 835.42 538.84 830.03 532.08 827.68 525.28 828.89 518.2 833.56 510.86 841.67 503.48 853.08 495.85 867.24 487.98 883.52 480.08 901.25 471.95 919.48 463.6 937.27 455.22 953.77 446.65 968 437.87 979.13 429.09 986.67 420.12 990 410.98 988.85 401.84 983.51 392.64 974.1 383.4 961.23 374.17 945.79 364.91 928.52 355.63 910.38 346.36 892.44 337.09 875.52 327.82 860.47 318.57 848.08 309.33 838.78 300.12 832.91 290.94 830.77 281.79 832.13 272.68 836.72 263.62 844.4 254.62 854.34 245.68 865.87 236.8 878.6 228 891.46 219.29 903.69 210.64 914.98 202.11 924.35 193.69 931.31 185.36 935.8 177.15 937.25 169.09 935.57 161.12 930.99 153.31 923.45 145.66 913.22 138.12 900.74 130.74 886.33 123.55 870.5 116.46 853.69 109.55 836.42 102.83 819.19 96.2 802.38 89.75 786.42 83.49 771.66 77.3 758.33 71.29 746.65 65.45 736.73 59.65 728.67 54 722.4 48.5 717.81 40.33 714.22 24.52 714.9 16.84 717.74 9.14 721.61 -6.01 728.26 -13.48 729.97 -21.01 730.1 -35.74 724.42 -42.87 718.52 -47.61 713.51 -52.18 707.57 -56.57 700.77 -60.94 693.34 -65.08 685.18 -68.99 676.4 -72.81 667.14 -76.37 657.4 -79.63 647.3 -82.78 636.87 -85.62 626.2 -88.15 615.38 -90.56 604.38 -92.67 593.33 -94.47 582.29 -96.18 571.17 -97.62 560.14 -98.81 549.22 -99.97 538.29 -100.93 527.52 -101.7 516.93 -102.53 506.36 -103.23 495.98 -103.83 485.81 -104.56 475.68 -105.23 465.74 -105.86 456.02 -106.66 446.32 -107.44 436.83 -108.19 427.53 -109.12 418.25 -110.01 409.15 -110.84 400.24 -111.79 391.33 -112.62 382.7 -113.29 374.33 -114.01 365.95 -114.51 357.82 -114.76 349.93 -114.95 342 -114.84 334.31 -114.41 326.82 -113.85 319.29 -112.93 311.94 -111.64 304.78 -110.2 297.55 -108.4 290.47 -106.23 283.52 -103.92 276.48 -101.27 269.54 -98.32 262.69 -95.27 255.7 -91.95 248.76 -88.38 241.84 -84.79 234.75 -81.01 227.65 -77.05 220.51 -73.13 213.16 -69.08 205.74 -64.92 198.23 -60.84 190.49 -56.67 182.65 -52.43 174.68 -48.28 166.48 -44.05 158.17 -39.76 149.75 -35.55 141.13 -31.25 132.44 -26.86 123.68 -22.52 114.81 -18.06 105.95 -13.47 97.11 -8.89 88.29 -4.15 79.58 0.74 71.03 5.68 62.63 10.82 54.48 16.15 46.62 21.56 39.03 27.18 31.81 33.02 25 38.96 18.52 45.12 12.47 51.5 6.89 57.97 1.62 64.67 -3.2 71.56 -7.61 78.55 -11.79 85.74 -15.62 93.1 -19.14 100.54 -22.58 108.14 -25.81 115.89 -28.9 123.69 -32.06 131.62 -35.17 139.67 -38.27 147.74 -41.59 155.92 -44.96 164.19 -48.39 172.46 -52.09 180.8 -55.85 189.22 -59.67 197.61 -63.71 206.07 -67.75 214.59 -71.74 223.07 -75.84 231.61 -79.81 240.2 -83.6 248.75 -87.37 257.35 -90.87 266.01 -94.09 274.62 -97.18 283.29 -99.94 292.02 -102.35 300.71 -104.6 309.47 -106.52 318.29 -108.1 327.08 -109.55 335.95 -110.71 344.9 -111.59 353.83 -112.42 362.84 -113.03 371.95 -113.41 381.04 -113.82 390.23 -114.06 399.52 -114.13 408.81 -114.28 418.2 -114.28 427.7 -114.15" stroke-dasharray="1 7" transform="rotate(0, 400, 400)" opacity="1.00"></path><path d="M430.88 -91.17C440.05 -91.11 449.18 -91.01 458.26 -90.85 467.33 -90.85 476.35 -90.77 485.31 -90.59 494.27 -90.5 503.15 -90.26 511.95 -89.84 520.73 -89.41 529.41 -88.72 537.97 -87.75 546.51 -86.65 554.9 -85.21 563.15 -83.4 571.34 -81.39 579.35 -78.99 587.16 -76.2 594.88 -73.2 602.37 -69.83 609.61 -66.12 616.74 -62.27 623.58 -58.15 630.11 -53.8 636.49 -49.45 642.54 -44.97 648.23 -40.42 653.75 -36.01 658.88 -31.62 663.62 -27.29 670.25 -21.23 681.2 -10.12 685.54 -5.06 692.18 4.1 699.26 18.36 701.09 23.91 703.2 30.06 708.4 44.74 711.89 53.36 714.85 59.58 718.24 66.22 722.1 73.25 726.65 80.59 731.77 88.28 737.51 96.28 744 104.51 751.14 113 758.94 121.68 767.46 130.51 776.6 139.47 786.32 148.52 796.62 157.62 807.38 166.76 818.49 175.91 829.92 185.02 841.5 194.09 853.1 203.12 864.65 212.06 875.94 220.93 886.82 229.73 897.22 238.41 906.93 247.01 915.77 255.55 923.73 263.96 930.58 272.32 936.19 280.64 940.63 288.84 943.66 297.03 945.22 305.21 945.5 313.29 944.29 321.4 941.62 329.55 937.78 337.63 932.63 345.78 926.27 354.01 919.11 362.19 911.05 370.48 902.28 378.9 893.26 387.29 883.94 395.82 874.54 404.51 865.55 413.18 856.93 422.03 848.88 431.05 841.85 440.07 835.82 449.17 830.93 458.35 827.4 467.52 825.14 476.77 824.13 486.07 824.57 495.37 826.19 504.71 828.93 514.07 832.88 523.41 837.7 532.73 843.22 542.01 849.53 551.23 856.21 560.36 863.07 569.35 870.18 578.22 877.11 586.9 883.66 595.33 889.95 603.55 895.55 611.44 900.32 618.95 904.42 626.16 907.46 632.9 909.38 639.11 910.24 647.57 904.32 660.67 897.64 665.17 891.86 667.54 885.06 669.21 877.32 670.23 868.85 670.96 859.62 671.15 849.75 670.85 839.41 670.53 828.64 669.95 817.55 669.23 806.26 668.85 794.85 668.64 783.4 668.76 772 669.66 760.73 671.23 749.64 673.65 738.8 677.25 728.25 681.98 718.03 687.97 708.19 695.38 698.71 704.17 689.63 714.37 680.97 725.92 672.7 738.74 664.81 752.7 657.35 767.54 650.22 783.08 643.42 799.03 636.99 815.02 630.82 830.75 624.88 845.83 619.24 859.87 613.77 872.52 608.42 883.41 600.76 895.59 585.83 903.98 578.38 899.8 573.48 894.06 568.46 886.2 563.31 876.62 558.21 866.12 552.93 854.89 547.47 843.52 542.01 832.95 536.35 823.45 530.48 815.6 524.59 810.18 518.47 807.34 512.13 807.4 505.76 810.71 499.17 817.11 492.34 826.46 485.48 838.58 478.4 852.9 471.1 868.86 463.77 885.82 456.23 902.95 448.47 919.42 440.71 934.54 432.74 947.44 424.58 957.43 416.41 964.15 408.06 967.03 399.53 965.87 391.01 960.93 382.42 952.3 373.78 940.51 365.16 926.31 356.5 910.31 347.81 893.36 339.14 876.36 330.46 860.03 321.78 845.13 313.13 832.39 304.48 822.23 295.86 815.02 287.28 811.08 278.73 810.32 270.24 812.59 261.79 817.85 253.39 825.47 245.08 834.92 236.82 845.94 228.64 857.6 220.56 869.26 212.56 880.63 204.66 890.81 196.88 899.29 189.19 905.96 181.62 910.18 174.2 911.76 166.86 910.8 159.68 907.09 152.65 900.73 145.71 892.04 138.94 881.16 132.34 868.44 125.81 854.26 119.46 839 113.28 823.08 107.17 806.86 101.22 790.76 95.44 775.13 89.71 760.23 84.13 746.36 78.7 733.73 73.29 722.48 68.01 712.71 62.86 704.45 57.7 697.75 52.64 692.49 47.69 688.56 40.25 685.23 25.66 684.46 18.49 685.88 11.27 688.05 -2.93 691.43 -9.88 691.85 -16.82 691.12 -30.13 685.11 -36.4 679.74 -40.51 675.37 -44.42 670.26 -48.1 664.44 -51.73 658.16 -55.12 651.26 -58.25 643.83 -61.3 636.03 -64.07 627.79 -66.57 619.18 -68.99 610.32 -71.14 601.18 -73.02 591.85 -74.84 582.35 -76.41 572.73 -77.76 563.04 -79.09 553.27 -80.22 543.48 -81.18 533.71 -82.18 523.91 -83.04 514.18 -83.79 504.53 -84.62 494.88 -85.38 485.33 -86.05 475.91 -86.85 466.5 -87.59 457.21 -88.27 448.07 -89.06 438.93 -89.79 429.92 -90.42 421.06 -91.14 412.19 -91.72 403.56 -92.14 395.15 -92.59 386.72 -92.83 378.5 -92.84 370.47 -92.81 362.41 -92.52 354.52 -91.93 346.79 -91.26 339.01 -90.28 331.36 -88.98 323.83 -87.57 316.22 -85.84 308.69 -83.8 301.24 -81.66 293.68 -79.23 286.15 -76.52 278.65 -73.74 271.01 -70.72 263.36 -67.48 255.68 -64.22 247.84 -60.77 239.95 -57.15 231.98 -53.57 223.85 -49.85 215.63 -46.01 207.33 -42.24 198.86 -38.36 190.3 -34.4 181.66 -30.51 172.9 -26.54 164.08 -22.49 155.22 -18.5 146.3 -14.42 137.39 -10.25 128.52 -6.11 119.68 -1.87 110.96 2.49 102.39 6.86 93.95 11.37 85.75 16.04 77.82 20.74 70.13 25.61 62.78 30.67 55.81 35.79 49.15 41.11 42.91 46.64 37.11 52.25 31.63 58.07 26.59 64.1 21.98 70.22 17.64 76.56 13.68 83.09 10.07 89.72 6.61 96.54 3.42 103.55 0.44 110.63 -2.54 117.89 -5.41 125.31 -8.22 132.79 -11.2 140.42 -14.19 148.18 -17.25 155.98 -20.57 163.9 -23.99 171.92 -27.52 179.97 -31.34 188.11 -35.26 196.33 -39.24 204.56 -43.44 212.86 -47.65 221.23 -51.82 229.59 -56.07 238 -60.18 246.48 -64.11 254.93 -67.98 263.44 -71.57 272 -74.86 280.54 -77.96 289.12 -80.71 297.76 -83.07 306.38 -85.23 315.04 -87 323.76 -88.39 332.46 -89.62 341.22 -90.51 350.03 -91.08 358.83 -91.58 367.69 -91.83 376.61 -91.87 385.52 -91.94 394.5 -91.86 403.55 -91.65 412.59 -91.56 421.69 -91.4 430.87 -91.17" stroke-dasharray="5 7" transform="rotate(1.5652173913043477, 400, 400)" opacity="0.96"></path><path d="M429.7 -68.19C438.45 -68.11 447.11 -68.04 455.69 -67.99 464.25 -68.15 472.72 -68.28 481.08 -68.36 489.43 -68.56 497.66 -68.64 505.76 -68.55 513.83 -68.45 521.76 -68.1 529.53 -67.46 537.25 -66.67 544.81 -65.52 552.16 -63.99 559.46 -62.21 566.54 -60.02 573.39 -57.4 580.16 -54.53 586.68 -51.26 592.92 -47.61 599.06 -43.78 604.91 -39.63 610.45 -35.24 615.88 -30.78 620.98 -26.17 625.75 -21.45 630.39 -16.84 634.7 -12.22 638.66 -7.64 644.25 -1.18 653.65 10.65 657.54 15.98 664.17 25.14 672.95 38.12 675.93 42.74 679.43 47.7 687.99 59.44 693.36 66.39 697.6 71.43 702.27 76.88 707.43 82.73 713.2 88.88 719.51 95.43 726.36 102.34 733.84 109.53 741.86 117.04 750.42 124.85 759.54 132.88 769.12 141.15 779.1 149.62 789.48 158.24 800.13 167 810.96 175.87 821.91 184.82 832.85 193.83 843.64 202.87 854.24 211.93 864.45 220.99 874.15 230.03 883.3 239.04 891.69 248.02 899.19 256.95 905.83 265.83 911.38 274.66 915.75 283.45 919.05 292.17 921.05 300.85 921.72 309.49 921.26 318.08 919.48 326.64 916.41 335.18 912.36 343.68 907.16 352.18 900.92 360.69 894.03 369.17 886.37 377.68 878.11 386.22 869.69 394.74 861.02 403.31 852.29 411.94 843.96 420.55 835.96 429.23 828.46 437.96 821.87 446.7 816.17 455.39 811.44 464.02 807.95 472.66 805.55 481.22 804.27 489.71 804.27 498.18 805.34 506.54 807.42 514.78 810.61 522.97 814.61 531 819.29 538.84 824.75 546.59 830.61 554.1 836.71 561.34 843.15 568.45 849.51 575.22 855.64 581.63 861.66 587.85 867.17 593.65 872.03 598.99 881.99 619.25 871.32 630.59 862.65 631.75 855.82 632.47 848.21 633.02 839.89 633.49 831.03 634.28 821.63 635.22 811.79 636.44 801.64 638.29 791.2 640.67 780.58 643.71 769.87 647.69 759.1 652.56 748.36 658.41 737.72 665.41 727.21 673.51 716.88 682.75 706.77 693.13 696.92 704.6 687.35 717.08 678.08 730.41 669.12 744.47 660.47 759.08 652.16 773.94 644.15 788.87 636.44 803.56 629.05 817.68 621.93 830.98 615.06 843.12 608.48 853.86 602.09 862.9 595.88 869.97 586.98 876.46 569.95 874.88 561.66 867.14 556.26 859.82 550.84 851.05 545.37 841.22 539.97 831.11 534.49 820.88 528.9 811.06 523.36 802.44 517.68 795.21 511.87 789.82 506.06 786.87 500.1 786.41 493.97 788.64 487.83 793.76 481.52 801.56 475.03 811.84 468.53 824.38 461.84 838.65 454.97 854.1 448.08 870.18 441.01 886.15 433.76 901.31 426.5 915.08 419.07 926.71 411.46 935.64 403.85 941.58 396.08 944.06 388.15 942.89 380.22 938.34 372.23 930.45 364.21 919.67 356.2 906.67 348.16 891.92 340.1 876.15 332.05 860.14 324.01 844.51 315.96 829.92 307.95 817.05 299.95 806.28 291.98 797.98 284.05 792.52 276.16 789.88 268.33 790.01 260.54 792.96 252.81 798.25 245.17 805.51 237.58 814.56 230.08 824.63 222.68 835.19 215.35 846.03 208.12 856.3 201.02 865.53 193.98 873.6 187.08 879.84 180.31 883.98 173.62 886.07 167.06 885.75 160.66 883.02 154.33 878.09 148.15 870.91 142.12 861.72 136.16 850.81 130.34 838.4 124.69 824.83 119.07 810.41 113.6 795.46 108.28 780.35 102.97 765.3 97.8 750.64 92.76 736.63 87.72 723.42 82.78 711.22 77.96 700.15 73.11 690.28 68.35 681.66 63.68 674.27 56.63 665.68 42.78 655.38 35.97 652.95 29.11 652.16 15.62 652.41 9.03 652.65 2.45 652.72 -10.15 650.5 -16.1 647.87 -21.87 644.19 -32.38 633.24 -37.06 626.03 -40.04 620.72 -42.79 614.9 -45.29 608.61 -47.73 602.05 -49.94 595.09 -51.9 587.79 -53.82 580.28 -55.52 572.5 -57 564.48 -58.47 556.33 -59.76 548.01 -60.87 539.54 -62 531 -62.99 522.37 -63.84 513.68 -64.76 504.95 -65.56 496.19 -66.26 487.43 -67.04 478.65 -67.73 469.88 -68.32 461.13 -68.99 452.38 -69.55 443.65 -70 434.96 -70.5 426.27 -70.85 417.72 -71.04 409.29 -71.24 400.85 -71.25 392.52 -71.04 384.31 -70.81 376.07 -70.33 367.92 -69.6 359.85 -68.81 351.74 -67.75 343.69 -66.41 335.68 -65.01 327.6 -63.32 319.55 -61.37 311.51 -59.36 303.38 -57.09 295.24 -54.57 287.07 -52.02 278.81 -49.25 270.5 -46.28 262.14 -43.3 253.68 -40.15 245.16 -36.84 236.57 -33.56 227.9 -30.15 219.16 -26.62 210.38 -23.15 201.54 -19.57 192.67 -15.89 183.8 -12.28 174.91 -8.58 166.06 -4.79 157.27 -1.06 148.54 2.75 139.93 6.68 131.47 10.56 123.16 14.56 115.07 18.68 107.23 22.79 99.62 27.04 92.33 31.43 85.38 35.84 78.73 40.42 72.47 45.17 66.61 49.97 61.07 54.96 55.94 60.13 51.24 65.38 46.81 70.83 42.76 76.47 39.09 82.2 35.59 88.13 32.39 94.26 29.45 100.47 26.55 106.88 23.82 113.47 21.2 120.15 18.47 127 15.76 134.01 13.03 141.1 10.06 148.34 7 155.72 3.83 163.16 0.35 170.73 -3.26 178.41 -7.02 186.14 -11.06 193.97 -15.21 201.89 -19.42 209.84 -23.83 217.88 -28.23 225.98 -32.57 234.1 -36.96 242.29 -41.19 250.54 -45.2 258.79 -49.1 267.09 -52.71 275.45 -55.96 283.8 -59 292.19 -61.64 300.63 -63.87 309.06 -65.84 317.54 -67.4 326.04 -68.55 334.55 -69.49 343.09 -70.08 351.67 -70.35 360.24 -70.52 368.85 -70.44 377.49 -70.15 386.13 -69.91 394.81 -69.55 403.51 -69.1 412.21 -68.81 420.94 -68.5 429.69 -68.19" stroke-dasharray="0 0" transform="rotate(3.1304347826086953, 400, 400)" opacity="0.92"></path><path d="M424.35 -45.21C432.6 -45.1 440.73 -45.07 448.74 -45.09 456.74 -45.38 464.61 -45.68 472.33 -45.97 480.04 -46.42 487.6 -46.77 495 -46.99 502.36 -47.2 509.56 -47.18 516.56 -46.88 523.53 -46.42 530.29 -45.6 536.84 -44.39 543.34 -42.92 549.6 -41.01 555.63 -38.66 561.59 -36.02 567.29 -32.94 572.73 -29.46 578.09 -25.75 583.18 -21.68 587.99 -17.32 592.72 -12.84 597.16 -8.16 601.31 -3.33 605.4 1.45 609.2 6.28 612.73 11.11 617.82 18.02 626.77 30.85 630.74 36.66 634.63 41.83 642.09 51.08 645.86 55.31 650.02 59.28 659.44 67.51 664.96 72.03 669.14 75.19 673.66 78.63 678.54 82.38 683.92 86.31 689.72 90.59 695.95 95.23 702.72 100.13 709.93 105.4 717.61 111.03 725.78 116.94 734.37 123.21 743.36 129.8 752.74 136.65 762.43 143.81 772.37 151.23 782.53 158.87 792.79 166.73 803.08 174.79 813.34 183.01 823.44 191.38 833.27 199.87 842.8 208.47 851.85 217.14 860.31 225.87 868.18 234.66 875.28 243.48 881.48 252.29 886.86 261.14 891.21 269.97 894.45 278.77 896.72 287.58 897.82 296.35 897.72 305.08 896.65 313.8 894.41 322.48 891.04 331.11 886.85 339.73 881.67 348.31 875.61 356.84 869.02 365.37 861.79 373.85 854.05 382.29 846.21 390.73 838.18 399.13 830.11 407.48 822.42 415.84 815.01 424.15 808.04 432.41 801.88 440.67 796.49 448.77 791.96 456.7 788.51 464.62 786.01 472.36 784.5 479.91 784.13 487.43 784.71 494.73 786.18 501.79 788.67 508.8 791.91 515.55 795.8 522.01 800.43 528.39 805.48 534.45 810.81 540.17 816.54 545.78 822.28 551.02 827.91 555.87 833.55 560.6 838.83 564.92 843.62 568.82 856.55 584.08 851.96 594.73 845.59 597.26 840.35 599.26 834.32 601.41 827.57 603.81 820.25 606.75 812.33 610.12 803.89 614.03 795.06 618.68 785.84 624.03 776.3 630.16 766.56 637.19 756.64 645.09 746.6 653.91 736.52 663.63 726.43 674.23 716.39 685.68 706.44 697.85 696.61 710.69 686.95 724.05 677.46 737.73 668.19 751.59 659.13 765.43 650.32 778.98 641.74 792.06 633.41 804.39 625.34 815.74 617.51 825.89 609.9 834.59 602.54 841.74 595.39 847.09 588.42 850.51 581.68 852.11 575.08 851.7 568.63 849.31 562.35 845.31 556.17 839.61 550.06 832.44 544.1 824.39 538.17 815.5 532.26 806.15 526.45 797.06 520.62 788.33 514.76 780.41 508.97 773.96 503.12 769.08 497.19 766.1 491.3 765.48 485.32 767.17 479.23 771.28 473.16 777.9 466.97 786.78 460.66 797.7 454.35 810.4 447.91 824.4 441.34 839.19 434.76 854.3 428.04 869.08 421.19 882.94 414.33 895.39 407.34 905.82 400.21 913.75 393.08 918.97 385.81 921.08 378.43 919.92 371.04 915.73 363.63 908.55 356.19 898.73 348.76 886.87 341.32 873.34 333.88 858.74 326.45 843.77 319.04 828.92 311.64 814.79 304.27 801.97 296.92 790.83 289.62 781.72 282.35 775.01 275.13 770.75 267.97 768.97 260.85 769.76 253.8 772.81 246.84 777.83 239.93 784.76 233.1 792.98 226.38 802.04 219.72 811.81 213.16 821.54 206.72 830.81 200.33 839.51 194.07 846.97 187.94 852.91 178.88 858.57 161.53 856.88 153.23 849.46 147.78 842.09 142.46 833.02 137.28 822.48 132.12 810.74 127.08 798.01 122.16 784.59 117.25 770.7 112.44 756.62 107.75 742.61 103.03 728.83 98.4 715.53 93.87 702.87 89.29 690.95 84.79 679.92 80.37 669.84 75.88 660.75 71.46 652.68 67.1 645.59 62.67 639.52 58.29 634.35 53.98 629.98 47.42 625.05 34.53 618.83 28.24 616.9 21.95 615.59 9.9 612.83 4.19 610.91 -1.35 608.58 -11.55 601.6 -16.14 596.84 -20.45 591.31 -27.95 577.67 -31.12 569.65 -33.13 564 -34.93 557.99 -36.53 551.64 -38.11 545.17 -39.52 538.4 -40.74 531.37 -41.98 524.26 -43.06 516.93 -43.99 509.4 -44.95 501.82 -45.78 494.07 -46.48 486.19 -47.22 478.28 -47.85 470.24 -48.34 462.11 -48.89 453.96 -49.3 445.72 -49.58 437.39 -49.88 429.06 -50.03 420.74 -50 412.45 -49.99 404.15 -49.78 395.86 -49.37 387.59 -48.94 379.3 -48.29 371.02 -47.42 362.74 -46.5 354.44 -45.36 346.13 -43.97 337.79 -42.54 329.43 -40.88 321.04 -38.98 312.61 -37.05 304.15 -34.9 295.64 -32.54 287.09 -30.16 278.51 -27.58 269.88 -24.84 261.21 -22.1 252.51 -19.2 243.78 -16.16 235.03 -13.15 226.29 -10.02 217.54 -6.77 208.81 -3.57 200.12 -0.27 191.49 3.11 182.93 6.45 174.48 9.87 166.14 13.39 157.97 16.85 149.96 20.41 142.15 24.07 134.58 27.69 127.25 31.41 120.2 35.25 113.47 39.08 107.01 43.04 100.91 47.12 95.18 51.23 89.74 55.48 84.69 59.89 80.03 64.35 75.63 68.97 71.6 73.76 67.92 78.62 64.43 83.66 61.25 88.89 58.33 94.19 55.49 99.68 52.84 105.35 50.34 111.12 47.77 117.06 45.25 123.18 42.76 129.39 40.06 135.77 37.3 142.31 34.44 148.94 31.29 155.71 28 162.63 24.55 169.63 20.78 176.75 16.86 184 12.8 191.3 8.47 198.72 4.06 206.24 -0.4 213.8 -5.01 221.45 -9.58 229.19 -14.05 236.95 -18.52 244.79 -22.79 252.69 -26.8 260.61 -30.66 268.59 -34.18 276.62 -37.31 284.66 -40.18 292.75 -42.63 300.86 -44.64 308.99 -46.36 317.16 -47.64 325.34 -48.5 333.54 -49.14 341.75 -49.42 349.98 -49.37 358.22 -49.22 366.48 -48.83 374.74 -48.26 383 -47.74 391.28 -47.14 399.54 -46.48 407.82 -46.03 416.08 -45.59 424.34 -45.21" stroke-dasharray="2 1" transform="rotate(4.695652173913043, 400, 400)" opacity="0.88"></path><path d="M415.57 -22.23C423.27 -22.1 430.83 -22.08 438.25 -22.16 445.66 -22.54 452.92 -22.98 460.02 -23.45 467.1 -24.09 474.02 -24.68 480.76 -25.16 487.47 -25.66 493.99 -25.95 500.32 -25.97 506.62 -25.86 512.71 -25.39 518.58 -24.53 527.22 -22.63 543.31 -16.13 550.73 -11.53 555.55 -8.04 560.13 -4.17 564.47 0.04 568.78 4.43 572.86 9.08 576.71 13.93 580.53 18.8 584.15 23.78 587.58 28.8 592.64 36.13 602.07 50.04 606.56 56.46 611.16 62.25 620.57 72.52 625.57 77.08 631.08 81.18 643.49 89.01 650.58 92.96 655.8 95.59 661.33 98.39 667.21 101.38 673.52 104.44 680.2 107.77 687.24 111.37 694.71 115.13 702.54 119.2 710.72 123.6 719.26 128.2 728.1 133.15 737.19 138.41 746.53 143.91 756.03 149.72 765.63 155.83 775.31 162.17 784.96 168.77 794.49 175.63 803.89 182.68 813.01 189.95 821.77 197.4 830.15 205.01 837.99 212.78 845.21 220.66 851.83 228.67 857.67 236.76 862.65 244.92 866.86 253.17 870.11 261.46 872.34 269.76 873.71 278.12 874.03 286.48 873.29 294.82 871.71 303.19 869.12 311.54 865.55 319.83 861.3 328.15 856.21 336.41 850.37 344.61 844.12 352.82 837.32 360.96 830.11 369.01 822.85 377.08 815.44 385.05 808 392.92 800.91 400.8 794.07 408.57 787.62 416.21 781.88 423.86 776.81 431.28 772.48 438.46 769.09 445.64 766.53 452.56 764.83 459.24 764.13 465.88 764.27 472.26 765.2 478.36 767.06 484.41 769.6 490.17 772.74 495.62 776.59 501.03 780.85 506.12 785.42 510.88 790.42 515.59 795.51 519.98 800.57 524.05 808.2 529.94 821.61 540.23 826.85 544.76 832.41 553.43 830.5 566.93 826.19 572.24 822.42 576.3 817.89 580.73 812.65 585.6 806.86 591.06 800.44 597.07 793.46 603.7 786.05 611.02 778.17 619.02 769.91 627.73 761.36 637.13 752.52 647.23 743.46 657.99 734.25 669.31 724.92 681.18 715.51 693.49 706.08 706.08 696.65 718.87 687.26 731.71 677.95 744.39 668.74 756.78 659.66 768.67 650.72 779.88 641.93 790.23 633.32 799.51 624.89 807.6 616.64 814.31 608.58 819.48 600.71 823.15 593.02 825.13 585.5 825.36 578.17 824.09 570.99 821.17 563.96 816.71 557.1 811.15 550.35 804.41 543.72 796.76 537.21 788.77 530.79 780.48 524.43 772.21 518.18 764.61 511.97 757.74 505.78 751.93 499.66 747.73 493.55 745.17 487.42 744.47 481.34 745.95 475.23 749.52 469.08 755.19 462.95 762.99 456.77 772.64 450.52 783.9 444.29 796.53 437.98 810.06 431.59 824.07 425.21 838.14 418.74 851.72 412.18 864.29 405.62 875.48 398.97 884.77 392.23 891.77 385.49 896.32 378.66 898.09 371.74 896.94 364.83 893.1 357.91 886.58 351.01 877.69 344.11 866.91 337.22 854.56 330.36 841.12 323.5 827.2 316.68 813.22 309.89 799.67 303.12 787.08 296.4 775.78 289.73 766.12 283.08 758.45 276.5 752.85 269.99 749.4 263.51 748.26 257.1 749.2 250.79 752.06 244.51 756.83 238.33 763.02 232.24 770.3 226.2 778.6 220.26 787.27 214.43 795.95 208.64 804.56 202.97 812.5 197.41 819.44 189.19 827.65 173.39 833.85 165.81 831.32 160.81 827.4 155.93 821.77 151.16 814.56 146.38 806.01 141.71 796.19 137.15 785.33 132.56 773.63 128.06 761.29 123.65 748.53 119.21 735.52 114.84 722.47 110.54 709.58 106.19 696.95 101.91 684.76 97.68 673.14 93.39 662.13 89.15 651.84 84.97 642.32 80.71 633.58 76.5 625.64 72.36 618.47 68.13 612.1 63.96 606.44 59.86 601.41 53.63 595.16 41.51 585.65 35.66 581.93 29.88 578.83 18.95 572.85 13.87 569.62 8.97 566.23 0.14 557.95 -3.77 552.94 -7.43 547.44 -13.71 534.48 -16.34 527.05 -18 521.89 -19.49 516.4 -20.8 510.61 -22.09 504.74 -23.23 498.58 -24.2 492.15 -25.18 485.67 -26.01 478.95 -26.69 471.98 -27.39 464.99 -27.94 457.79 -28.35 450.37 -28.77 442.95 -29.04 435.34 -29.16 427.54 -29.28 419.74 -29.24 411.86 -29.03 403.91 -28.81 395.96 -28.41 387.94 -27.82 379.85 -27.21 371.78 -26.4 363.64 -25.39 355.44 -24.36 347.25 -23.12 339 -21.68 330.69 -20.21 322.39 -18.54 314.04 -16.67 305.65 -14.79 297.26 -12.72 288.84 -10.46 280.38 -8.21 271.96 -5.8 263.51 -3.23 255.06 -0.68 246.66 2 238.27 4.82 229.93 7.6 221.67 10.49 213.47 13.49 205.36 16.44 197.38 19.49 189.53 22.62 181.84 25.7 174.31 28.87 166.98 32.12 159.88 35.32 153 38.62 146.38 42 140.05 45.35 133.97 48.8 128.21 52.35 122.78 57.71 115.2 69.05 102.12 75.06 96.6 81.27 91.64 94.55 83.15 101.64 79.43 109 75.77 124.71 68.43 133.04 64.53 138.74 61.64 144.6 58.62 150.62 55.45 156.72 51.96 162.97 48.3 169.36 44.48 175.83 40.34 182.44 36.07 189.17 31.68 195.96 27.06 202.88 22.39 209.89 17.72 216.96 12.95 224.13 8.28 231.39 3.75 238.69 -0.7 246.06 -4.91 253.5 -8.83 260.98 -12.54 268.52 -15.87 276.1 -18.78 283.71 -21.41 291.37 -23.58 299.06 -25.29 306.77 -26.7 314.5 -27.67 322.25 -28.21 330.03 -28.53 337.81 -28.49 345.6 -28.13 353.4 -27.68 361.2 -27.02 368.99 -26.19 376.79 -25.44 384.58 -24.63 392.35 -23.81 400.12 -23.21 407.86 -22.67 415.56 -22.23" stroke-dasharray="1 1" transform="rotate(6.260869565217391, 400, 400)" opacity="0.83"></path><path d="M404.6 0.74C411.73 0.9 418.72 0.91 425.55 0.78 432.39 0.34 439.06 -0.18 445.58 -0.78 452.08 -1.59 458.42 -2.37 464.58 -3.07 473.7 -4.1 490.98 -4.87 499.13 -4.33 507.04 -3.01 521.85 2.31 528.74 6.35 535.42 11.29 547.86 23.44 553.66 30.43 557.5 35.27 561.2 40.27 564.78 45.39 568.41 50.46 571.96 55.55 575.43 60.61 580.76 67.88 591.59 81.43 597.22 87.59 603.25 93.12 616.35 102.94 623.58 107.33 628.77 110 634.21 112.62 639.92 115.23 645.97 117.7 652.3 120.22 658.93 122.83 665.91 125.39 673.18 128.1 680.74 130.99 688.6 133.92 696.73 137.08 705.09 140.47 713.69 143.98 722.46 147.76 731.36 151.82 740.37 156.04 749.42 160.54 758.45 165.32 767.44 170.29 776.28 175.53 784.9 181.02 793.3 186.7 801.35 192.63 808.97 198.77 816.17 205.08 822.81 211.59 828.8 218.27 834.22 225.09 838.88 232.05 842.73 239.14 845.87 246.34 848.14 253.63 849.48 260.99 850.07 268.44 849.73 275.93 848.47 283.45 846.49 291.03 843.65 298.61 839.97 306.18 835.74 313.79 830.79 321.37 825.22 328.9 819.32 336.46 812.98 343.95 806.3 351.36 799.6 358.79 792.78 366.13 785.95 373.36 779.45 380.59 773.16 387.71 767.2 394.69 761.87 401.67 757.11 408.43 752.98 414.95 749.68 421.46 747.09 427.73 745.24 433.75 744.15 442.64 746.71 459.13 750.11 466.73 753.22 471.7 756.73 476.43 760.56 480.93 764.83 485.44 769.24 489.73 773.69 493.83 780.57 499.96 793.2 511.69 798.48 517.45 802.81 523.48 807.78 536.27 808.21 543.32 807.74 548.46 806.53 553.91 804.6 559.72 802.13 565.99 798.95 572.69 795.11 579.88 790.75 587.57 785.78 595.79 780.25 604.55 774.27 613.8 767.81 623.58 760.9 633.85 753.67 644.53 746.07 655.61 738.18 667.03 730.07 678.64 721.73 690.41 713.23 702.23 704.61 713.91 695.9 725.4 687.13 736.52 678.34 747.13 669.54 757.1 660.79 766.26 652.08 774.52 643.44 781.7 634.9 787.67 626.45 792.44 618.12 795.83 609.92 797.76 601.85 798.41 593.91 797.59 586.11 795.34 578.45 791.98 570.92 787.4 563.53 781.74 556.27 775.47 549.13 768.53 542.1 761.16 535.2 753.91 528.39 746.78 521.67 740.07 515.04 734.29 508.49 729.47 502 725.87 495.58 723.89 489.21 723.51 482.87 724.88 476.58 728.19 470.31 733.32 464.04 740.22 457.81 748.87 451.58 758.99 445.33 770.33 439.1 782.66 432.84 795.58 426.56 808.7 420.29 821.68 413.98 834.04 407.63 845.36 401.29 855.35 394.9 863.57 388.46 869.69 382.03 873.63 375.55 875.09 369.03 873.96 362.51 870.45 356.02 864.56 349.57 856.53 343.12 846.79 336.72 835.57 330.36 823.29 324.01 810.44 317.71 797.37 311.47 784.5 305.23 772.3 299.06 761.06 292.96 751.08 286.88 742.71 280.86 736.05 274.93 731.22 269.02 728.39 263.19 727.44 257.45 728.27 251.74 730.92 246.11 735.04 240.59 740.38 235.09 746.91 229.69 754.13 224.4 761.71 219.12 769.64 213.95 777.34 208.89 784.54 203.84 791.25 198.9 796.98 194.07 801.53 186.87 806 172.99 805.42 166.28 800.27 161.81 795.01 157.43 788.4 153.14 780.58 148.81 771.73 144.55 761.94 140.37 751.39 136.13 740.24 131.96 728.64 127.84 716.77 123.66 704.74 119.54 692.72 115.47 680.86 111.32 669.21 107.22 657.91 103.17 647.07 99.04 636.68 94.96 626.85 90.93 617.62 86.83 608.97 82.78 600.93 78.8 593.49 74.74 586.66 70.76 580.37 66.86 574.6 60.97 566.94 49.64 554.12 44.24 548.63 38.96 543.72 29.13 534.41 24.63 529.74 20.35 525.08 12.72 514.88 9.39 509.21 6.31 503.27 1.11 489.95 -1 482.55 -2.91 474.82 -5.86 457.93 -6.9 448.79 -7.54 442.59 -8.01 436.14 -8.32 429.45 -8.63 422.75 -8.77 415.81 -8.74 408.65 -8.7 401.49 -8.49 394.19 -8.11 386.78 -7.71 379.38 -7.14 371.86 -6.39 364.26 -5.62 356.66 -4.67 348.98 -3.54 341.23 -2.39 333.5 -1.06 325.7 0.44 317.84 1.95 310.02 3.65 302.16 5.51 294.28 7.37 286.44 9.4 278.59 11.57 270.75 13.73 262.98 16.04 255.23 18.48 247.54 20.88 239.94 23.41 232.41 26.05 224.99 28.64 217.69 31.34 210.52 34.13 203.51 36.86 196.65 39.69 189.99 42.6 183.53 45.45 177.26 48.38 171.24 51.4 165.47 55.88 157.28 65.2 142.67 70.07 136.28 74.99 130.48 85.38 120.53 90.88 116.28 96.54 112.32 108.6 105.14 115.03 101.71 121.7 98.08 135.91 90.23 143.46 85.84 148.62 82.56 153.93 79.13 159.4 75.51 164.93 71.59 170.62 67.5 176.44 63.25 182.34 58.74 188.36 54.12 194.51 49.42 200.73 44.57 207.07 39.72 213.51 34.91 220.02 30.09 226.62 25.42 233.31 20.94 240.05 16.6 246.87 12.55 253.76 8.85 260.7 5.39 267.7 2.35 274.74 -0.25 281.83 -2.54 288.95 -4.37 296.11 -5.74 303.3 -6.79 310.52 -7.42 317.75 -7.62 325 -7.61 332.26 -7.27 339.53 -6.62 346.81 -5.91 354.08 -5 361.34 -3.96 368.61 -3.01 375.85 -2.04 383.06 -1.07 390.28 -0.36 397.46 0.24 404.59 0.74" stroke-dasharray="1 2" transform="rotate(7.826086956521739, 400, 400)" opacity="0.79"></path><path d="M392.99 23.72C399.55 23.9 405.99 23.92 412.28 23.77 418.58 23.29 424.73 22.68 430.73 21.99 439.64 20.61 456.68 17.91 464.8 16.9 472.74 16.27 487.8 16.99 494.93 18.54 501.9 21 515.14 28.67 521.44 33.82 525.63 37.65 529.71 41.84 533.7 46.33 537.74 51 541.71 55.88 545.63 60.95 549.63 66.05 553.6 71.24 557.57 76.47 561.66 81.6 565.77 86.7 569.93 91.73 574.26 96.55 578.67 101.25 583.18 105.81 587.89 110.09 592.75 114.21 597.76 118.16 603.01 121.82 608.45 125.33 614.1 128.68 620.01 131.77 626.14 134.75 632.49 137.63 639.12 140.31 645.99 142.94 653.08 145.56 660.42 148.04 667.98 150.56 675.74 153.15 683.7 155.68 691.81 158.33 700.05 161.12 708.42 163.91 716.85 166.89 725.29 170.07 733.74 173.31 742.13 176.77 750.38 180.46 758.51 184.25 766.41 188.28 774.02 192.54 781.35 196.92 788.27 201.54 794.73 206.38 800.77 211.35 806.23 216.53 811.06 221.9 815.35 227.4 818.93 233.07 821.75 238.9 823.95 244.84 825.35 250.91 825.93 257.09 825.87 263.37 825 269.74 823.32 276.18 821.06 282.69 818.06 289.25 814.35 295.84 810.19 302.49 805.44 309.14 800.16 315.79 794.65 322.48 788.77 329.14 782.6 335.77 776.46 342.41 770.22 349.01 763.97 355.54 758.03 362.07 752.26 368.53 746.78 374.9 741.85 381.27 737.4 387.47 733.48 393.5 730.29 399.52 727.69 405.36 725.73 411.03 724.25 419.44 725.44 435.44 727.9 443.06 730.33 448.11 733.13 453.04 736.25 457.87 739.81 462.74 743.54 467.54 747.36 472.29 751.41 477.14 755.4 481.97 759.27 486.83 763.15 491.83 766.76 496.91 770.05 502.1 773.16 507.5 775.84 513.07 778.03 518.84 779.91 524.89 781.22 531.2 781.95 537.81 782.27 544.75 781.97 552.03 781.05 559.68 779.67 567.69 777.67 576.08 775.06 584.87 772 593.98 768.36 603.48 764.18 613.32 759.59 623.41 754.5 633.78 748.95 644.38 743.07 655.06 736.79 665.84 730.16 676.62 723.27 687.27 716.1 697.73 708.69 707.9 701.11 717.65 693.35 726.89 685.45 735.49 677.45 743.38 669.37 750.43 661.24 756.51 653.09 761.65 644.92 765.67 636.77 768.5 628.64 770.27 620.56 770.81 612.55 770.1 604.59 768.41 596.72 765.58 588.93 761.69 581.23 757.12 573.63 751.74 566.13 745.74 558.73 739.55 551.42 733.13 544.22 726.69 537.1 720.71 530.08 715.16 523.16 710.29 516.31 706.51 509.54 703.81 502.86 702.36 496.23 702.46 489.68 704.05 483.18 707.21 476.74 712.03 470.34 718.39 463.98 726.19 457.66 735.37 451.37 745.67 445.1 756.86 438.86 768.71 432.64 780.88 426.42 793.03 420.23 804.88 414.03 816.04 407.84 826.15 401.65 835 395.46 842.21 389.27 847.52 383.07 850.91 376.87 852.08 370.67 850.98 364.46 847.79 358.32 842.48 352.25 835.27 346.18 826.52 340.18 816.38 334.24 805.22 328.31 793.44 322.45 781.33 316.66 769.23 310.88 757.55 305.18 746.54 299.55 736.48 293.94 727.67 288.4 720.24 282.96 714.31 274.84 708.78 259.07 708.2 251.44 712.6 246.38 717.23 241.42 722.72 236.56 728.84 231.69 735.59 226.92 742.48 222.26 749.27 217.58 756 212.99 762.18 208.51 767.62 201.79 774.28 188.76 780.41 182.42 779.48 178.18 777.27 174.01 773.77 169.92 769.06 165.77 763.29 161.68 756.46 157.65 748.69 153.55 740.12 149.51 730.83 145.52 720.96 141.46 710.62 137.44 699.95 133.47 689.07 129.42 678.04 125.41 667.01 121.45 656.1 117.41 645.3 113.42 634.77 109.47 624.56 105.46 614.66 101.49 605.17 97.59 596.11 93.62 587.46 89.73 579.27 85.9 571.53 82.04 564.23 78.25 557.35 74.56 550.86 70.85 544.78 67.24 539.04 63.74 533.59 58.55 526.04 48.86 512.3 44.4 505.87 40.14 499.75 32.5 487.57 29.15 481.35 26.04 475.1 20.79 461.84 18.65 454.76 16.74 447.48 13.86 431.85 12.89 423.49 12.32 417.82 11.93 411.94 11.72 405.85 11.53 399.75 11.51 393.43 11.67 386.92 11.85 380.4 12.21 373.76 12.74 367.02 13.29 360.28 14.01 353.45 14.91 346.53 15.81 339.64 16.89 332.68 18.13 325.66 19.38 318.68 20.8 311.65 22.37 304.61 23.95 297.61 25.67 290.61 27.55 283.63 29.41 276.7 31.4 269.82 33.54 262.99 35.64 256.24 37.87 249.58 40.21 243.01 42.51 236.56 44.91 230.22 47.42 224.04 49.87 217.99 52.41 212.11 55.04 206.42 58.92 198.22 66.99 183.18 71.16 176.4 75.32 170.11 83.95 159.02 88.44 154.2 92.96 149.74 102.46 141.87 107.47 138.33 112.6 134.82 123.5 127.84 129.3 124.19 135.28 120.15 148.04 111.09 154.81 105.96 159.42 102.19 164.19 98.25 169.09 94.14 174.05 89.76 179.15 85.24 184.39 80.6 189.68 75.77 195.11 70.88 200.65 65.97 206.26 60.99 211.98 56.06 217.81 51.25 223.69 46.5 229.68 41.95 235.75 37.66 241.88 33.56 248.09 29.79 254.37 26.41 260.7 23.3 267.09 20.63 273.53 18.41 280.02 16.51 286.55 15.08 293.12 14.1 299.71 13.42 306.34 13.15 312.99 13.28 319.66 13.61 326.35 14.24 333.04 15.15 339.74 16.1 346.44 17.21 353.13 18.43 359.82 19.53 366.5 20.64 373.15 21.7 379.8 22.5 386.41 23.18 392.98 23.72" stroke-dasharray="1 4" transform="rotate(9.391304347826086, 400, 400)" opacity="0.75"></path><path d="M382.36 46.7C391.36 46.92 408.8 45.96 417.22 44.89 425.52 43.39 441.48 40.25 449.15 38.9 456.69 37.85 471.2 37.47 478.17 38.37 485.07 40.11 498.44 46.28 504.96 50.68 509.33 54.06 513.65 57.81 517.93 61.92 522.28 66.24 526.62 70.85 530.95 75.7 535.39 80.65 539.84 85.77 544.34 91 548.96 96.22 553.64 101.48 558.41 106.74 563.33 111.88 568.36 116.96 573.51 121.95 578.84 126.73 584.32 131.38 589.95 135.9 595.78 140.15 601.77 144.26 607.95 148.21 614.32 151.89 620.88 155.43 627.62 158.84 634.55 162.01 641.65 165.07 648.9 168.05 656.32 170.82 663.86 173.56 671.52 176.28 679.28 178.84 687.11 181.44 694.96 184.08 702.84 186.64 710.69 189.28 718.47 192.03 726.17 194.75 733.72 197.61 741.07 200.61 748.24 203.63 755.11 206.83 761.64 210.2 767.87 213.62 773.67 217.24 778.99 221.04 786.08 226.93 796.56 239.78 799.78 246.69 801.49 253.88 800.53 269.09 797.91 277.06 795.46 282.47 792.38 287.97 788.71 293.56 784.69 299.18 780.17 304.88 775.23 310.63 770.11 316.4 764.68 322.22 759.03 328.07 753.43 333.93 747.74 339.8 742.06 345.69 736.65 351.58 731.39 357.47 726.36 363.35 721.81 369.23 717.67 375.04 713.98 380.76 710.9 386.48 708.33 392.13 706.29 397.7 704.5 406.04 704.48 422.46 706.12 430.59 707.91 436.05 710.06 441.51 712.51 446.98 715.38 452.52 718.44 458.11 721.62 463.77 725.06 469.53 728.51 475.4 731.9 481.4 735.37 487.54 738.67 493.85 741.75 500.34 744.75 507.02 747.43 513.93 749.74 521.07 751.84 528.42 753.5 536.04 754.69 543.94 755.58 552.05 755.96 560.44 755.82 569.1 755.32 577.96 754.28 587.06 752.71 596.4 750.76 605.85 748.29 615.47 745.32 625.21 741.99 634.95 738.18 644.71 733.92 654.42 729.34 663.97 724.36 673.33 719.01 682.42 713.4 691.14 707.46 699.43 701.24 707.19 694.81 714.38 688.15 720.89 681.29 726.62 674.29 731.59 667.14 735.67 659.87 738.79 652.52 741.05 645.09 742.3 637.6 742.52 630.08 741.91 622.53 740.31 614.99 737.76 607.45 734.57 599.93 730.59 592.46 725.94 585.01 720.99 577.61 715.64 570.28 710.04 562.99 704.61 555.78 699.28 548.63 694.24 541.55 689.89 534.54 686.19 527.61 683.29 520.73 681.54 513.93 680.89 507.2 681.43 500.53 683.39 493.92 686.67 487.39 691.29 480.89 697.29 474.46 704.54 468.09 712.91 461.75 722.33 455.46 732.55 449.21 743.37 443 754.58 436.82 765.89 430.68 777.01 424.56 787.73 418.47 797.71 412.41 806.65 406.37 814.42 400.34 820.7 394.35 825.27 388.35 828.14 382.38 829.07 376.43 828 370.48 825.11 364.62 820.36 358.86 813.91 353.09 806.08 347.4 796.99 341.81 786.91 336.21 776.2 330.7 765.06 325.28 753.81 319.86 742.77 314.52 732.15 309.28 722.21 304.03 713.21 298.88 705.27 293.81 698.54 286.25 691.21 271.58 685.65 264.47 687.19 259.74 689.88 255.11 693.52 250.57 697.94 246.01 703.17 241.54 708.81 237.15 714.65 232.74 720.76 228.41 726.69 224.17 732.28 217.79 739.93 205.33 750.46 199.23 752.76 193.12 752.66 181.1 745.58 175.17 738.79 171.16 733.1 167.19 726.56 163.27 719.27 159.28 711.35 155.32 702.86 151.41 693.89 147.42 684.53 143.47 674.88 139.56 665.04 135.58 655.04 131.64 645 127.75 635.01 123.8 625.05 119.89 615.25 116.05 605.66 112.15 596.24 108.31 587.1 104.55 578.26 100.75 569.68 97.04 561.42 93.41 553.5 89.76 545.86 86.21 538.54 82.78 531.52 79.34 524.78 76.02 518.32 72.83 512.1 69.65 506.13 66.61 500.36 63.73 494.76 59.51 486.72 51.95 471.38 48.61 463.93 45.53 456.64 40.32 442.01 38.2 434.57 36.34 427.09 33.6 411.6 32.71 403.56 32.08 395.38 31.76 378.34 32.09 369.48 32.4 363.52 32.89 357.51 33.54 351.45 34.22 345.39 35.07 339.29 36.09 333.17 37.11 327.06 38.3 320.94 39.64 314.81 40.98 308.72 42.48 302.64 44.11 296.58 45.74 290.58 47.5 284.62 49.39 278.72 51.27 272.89 53.26 267.13 55.36 261.48 58.53 253.18 65.28 237.38 68.85 229.95 72.41 222.84 79.81 209.76 83.64 203.82 87.43 198.24 95.25 188.25 99.28 183.82 107.46 175.82 120.35 164.96 124.92 161.5 129.57 157.84 139.41 150.03 144.62 145.75 149.98 140.97 161.36 130.26 167.39 124.29 171.5 120 175.73 115.56 180.09 111 184.5 106.22 189.03 101.36 193.69 96.44 198.39 91.4 203.22 86.38 208.16 81.4 213.15 76.43 218.26 71.58 223.46 66.92 228.72 62.38 234.07 58.1 239.52 54.12 245 50.38 250.58 47.01 256.23 44.04 261.92 41.37 267.67 39.14 273.49 37.36 279.34 35.91 285.25 34.9 291.2 34.32 297.18 34.02 303.19 34.11 309.23 34.56 315.29 35.18 321.38 36.07 327.47 37.2 333.58 38.35 339.7 39.63 345.81 40.99 351.93 42.21 358.05 43.41 364.14 44.54 370.24 45.41 376.31 46.13 382.35 46.7" stroke-dasharray="3 1" transform="rotate(10.956521739130435, 400, 400)" opacity="0.71"></path><path d="M374.21 69.68C382.52 69.93 398.73 68.99 406.62 67.89 417.07 65.62 427.2 63.3 436.98 61.28 446.78 59.32 456.3 58.39 465.54 58.76 474.89 60.12 484.06 63.17 493.12 67.88 502.4 73.81 511.7 81.25 521.09 89.95 530.87 99.35 540.91 109.5 551.27 120.08 562.18 130.55 573.55 140.94 585.43 151.05 597.91 160.42 610.94 169.28 624.44 177.6 638.45 184.97 652.79 191.88 667.32 198.43 681.96 204.21 696.43 209.88 710.43 215.59 723.92 220.87 736.43 226.44 747.63 232.41 757.57 238.26 765.69 244.67 771.68 251.67 775.9 258.72 777.73 266.41 777.08 274.72 774.65 283.12 769.93 292.1 763.1 301.59 755.2 311.15 745.89 321.16 735.6 331.56 730.51 336.76 725.36 342.06 720.21 347.44 715.31 352.82 710.53 358.28 705.94 363.82 701.76 369.36 697.92 374.92 694.46 380.49 691.51 386.07 688.99 391.67 686.91 397.29 684.47 408.58 683.79 420.04 684.74 431.73 687.67 443.61 691.72 455.88 696.53 468.64 702.4 481.76 708.28 495.53 713.77 510.02 719.25 524.99 723.66 540.75 726.76 557.23 729.02 574.04 729.58 591.38 728.37 608.96 725.97 626.29 721.76 643.26 715.86 659.37 708.81 674.17 700.27 687.23 690.43 697.95 679.77 706.28 668.12 711.59 655.71 713.55 642.84 712.87 629.49 709.05 615.86 702.42 602.07 694.55 588.19 685.37 574.35 675.9 560.55 668.1 546.87 662.21 533.4 659.33 520.05 660.82 506.92 666.62 494.04 676.9 481.28 691.59 468.75 709.62 456.45 729.74 444.23 750.62 432.21 770.3 420.38 786.88 414.48 793.64 408.63 799.04 402.81 802.94 397.01 805.35 391.24 806.06 385.51 805.02 379.78 802.41 374.15 798.17 368.63 792.44 363.11 785.49 357.68 777.39 352.36 768.35 341.68 748.63 331.39 727.93 321.49 708.14 311.54 691.06 301.95 677.66 292.72 668.65 283.42 664.71 274.47 665.23 265.84 669.49 257.1 677.3 248.66 686.83 240.51 696.81 232.18 706.98 224.1 715.42 216.24 721.27 208.16 724.76 200.26 724.7 192.53 721.06 184.53 714.46 176.68 704.64 168.97 692.15 161 677.61 153.17 661.39 145.53 644.13 137.67 626.17 130.02 608.07 122.65 590.25 115.16 572.71 108.01 555.91 101.27 539.98 94.54 524.72 88.3 510.36 82.61 496.86 77.04 483.97 72.09 471.74 67.8 460.03 63.72 448.72 60.33 437.7 57.67 426.84 55.23 416.16 53.52 405.47 52.57 394.71 52.06 386.64 52.03 370.32 52.51 362.06 53.23 353.79 55.56 337.39 57.15 329.29 59.41 318.54 62.25 308.01 65.63 297.81 68.97 287.71 72.78 278.02 77.01 268.84 81.08 259.85 85.51 251.45 90.24 243.71 94.74 236.18 99.5 229.32 104.5 223.17 109.22 217.1 114.18 211.62 119.36 206.67 124.29 201.53 129.49 196.67 134.95 191.95 140.25 186.64 145.89 181.18 151.88 175.39 157.8 168.68 164.15 161.45 170.9 153.64 177.7 144.87 184.97 135.59 192.68 125.95 200.5 115.79 208.78 105.68 217.5 95.9 226.35 86.43 235.63 77.88 245.27 70.56 255.04 64.3 265.15 59.65 275.53 56.73 286.01 55.03 296.73 54.92 307.61 56.23 318.55 58.07 329.62 60.67 340.74 63.69 349.1 65.62 365.84 68.71 374.2 69.68" stroke-dasharray="4 6" transform="rotate(12.521739130434781, 400, 400)" opacity="0.67"></path><path d="M369.68 92.66C380 92.82 390.13 92.22 400.05 90.98 409.98 88.71 419.72 86.28 429.28 84.03 438.89 81.69 448.37 80.19 457.74 79.79 467.23 80.21 476.71 82.16 486.21 85.67 495.93 90.36 505.79 96.57 515.83 104.14 526.21 112.58 536.89 122 547.88 132.11 559.3 142.43 571.11 152.98 583.3 163.54 595.9 173.68 608.84 183.52 622.04 192.97 635.48 201.66 649 209.89 662.43 217.7 675.72 224.75 688.59 231.5 700.79 238.07 712.33 244.07 722.79 250.08 731.88 256.23 739.77 262.04 745.93 268.16 750.16 274.67 752.85 281.03 753.47 287.89 751.95 295.27 749.01 302.6 744.15 310.49 737.55 318.94 730.16 327.37 721.63 336.37 712.29 345.91 703.23 355.44 694.17 365.52 685.52 376.17 678.27 386.81 672.24 397.8 667.59 409.13 664.88 420.52 663.63 432.33 663.75 444.57 665.62 456.95 668.51 469.86 672.13 483.29 676.81 496.93 681.64 511.14 686.3 525.87 691.18 540.74 695.32 556.03 698.5 571.55 701.18 586.91 702.52 602.18 702.45 617.01 701.48 631.07 698.98 644.13 694.99 655.76 690.05 665.84 683.71 673.88 676.13 679.51 667.76 683.09 658.35 684.01 648.07 682.26 637.28 678.81 625.86 673.25 613.97 666.06 601.82 658.76 589.38 651.26 576.8 644.46 564.15 639.9 551.46 637.66 538.83 638.48 526.24 643.26 513.75 651.72 501.43 663.79 489.17 679.21 477.08 696.95 465.2 715.88 453.38 734.9 441.74 752.38 430.3 766.82 418.89 777.37 407.66 782.66 396.62 782.04 385.58 776.07 374.96 764.84 364.74 749.54 354.5 731.83 344.64 712.86 335.15 694.17 325.6 677.3 316.4 663.11 307.54 652.36 298.58 645.76 289.93 643.05 281.57 643.85 273.07 648.19 264.84 654.73 256.84 662.5 248.66 671.39 240.68 679.71 232.89 686.64 224.88 692.37 217.02 695.57 209.31 695.98 201.35 694.11 193.53 689.33 185.84 681.89 177.93 672.37 170.17 660.75 162.6 647.52 154.85 633.07 147.33 617.73 140.08 601.94 132.76 585.79 125.78 569.71 119.2 553.96 112.66 538.38 106.6 523.35 101.06 508.95 95.69 494.9 90.9 481.47 86.76 468.65 82.84 456.12 79.6 444.08 77.08 432.47 74.81 421.02 73.26 409.88 72.45 399.01 71.88 388.19 72.04 377.55 72.93 367.09 74 356.63 75.73 346.58 78.08 336.95 80.5 327.32 83.47 318.13 86.93 309.43 90.35 300.76 94.19 292.61 98.41 285.03 102.47 277.48 106.85 270.51 111.5 264.11 115.91 257.7 120.56 251.81 125.41 246.4 129.98 240.82 134.75 235.56 139.72 230.52 144.42 225.05 149.35 219.58 154.5 213.99 159.46 207.67 164.69 201.02 170.21 193.94 175.63 185.99 181.39 177.55 187.5 168.64 193.59 159.02 200.07 149.12 206.95 139.11 213.87 128.92 221.2 119.06 228.92 109.81 236.72 101.11 244.91 93.51 253.46 87.25 262.08 82.1 271.05 78.54 280.3 76.63 289.62 75.82 299.2 76.43 308.99 78.29 318.82 80.53 328.82 83.39 338.96 86.54 349.11 89.02 359.36 91.13 369.67 92.66" stroke-dasharray="1 0" transform="rotate(14.08695652173913, 400, 400)" opacity="0.63"></path><path d="M369.42 115.64C379.04 115.85 388.6 115.32 398.08 114.14 407.58 111.93 417.03 109.5 426.42 107.12 435.88 104.52 445.34 102.57 454.81 101.51 464.41 101.09 474.1 101.99 483.89 104.3 493.89 107.67 504.08 112.51 514.47 118.73 525.13 125.9 536.06 134.19 547.26 143.38 558.74 153.04 570.5 163.22 582.49 173.68 594.7 184.06 607.06 194.41 619.47 204.58 631.9 214.28 644.2 223.66 656.18 232.68 667.87 241.07 678.96 249.13 689.24 256.91 698.82 264.11 707.27 271.16 714.38 278.16 720.4 284.72 724.83 291.38 727.54 298.22 728.97 304.79 728.61 311.67 726.46 318.92 723.2 326.03 718.36 333.59 712.09 341.65 705.27 349.63 697.52 358.16 689.12 367.26 681.02 376.33 672.9 386.01 665.1 396.33 658.49 406.65 652.84 417.4 648.32 428.58 645.41 439.79 643.7 451.46 643.13 463.56 644.08 475.72 645.91 488.31 648.43 501.27 651.96 514.27 655.73 527.56 659.49 541.02 663.6 554.34 667.26 567.63 670.23 580.66 672.98 593.2 674.73 605.14 675.37 616.15 675.4 626.19 674.17 634.89 671.69 641.93 668.47 647.55 664.01 651.21 658.4 652.75 652.11 652.83 644.8 650.9 636.6 647.12 627.89 642.58 618.46 636.9 608.45 630.63 598.12 625.08 587.37 620.15 576.32 616.51 565.12 615.35 553.74 616.58 542.27 620.66 530.76 628.09 519.24 638.51 507.76 651.67 496.31 667.21 484.93 684.21 473.69 701.67 462.48 718.74 451.39 734.07 440.47 746.49 429.56 755.43 418.8 759.79 408.21 759.06 397.61 753.78 387.4 743.94 377.57 730.47 367.71 714.73 358.2 697.55 349.03 680.17 339.8 663.89 330.88 649.44 322.25 637.54 313.53 628.92 305.06 623.5 296.85 621.18 288.51 622.15 280.37 625.46 272.44 630.46 264.34 637.15 256.4 644.14 248.62 650.74 240.65 657.12 232.8 661.99 225.09 664.97 217.18 666.49 209.39 665.69 201.75 662.6 193.92 657.76 186.26 650.81 178.79 642.04 171.2 631.91 163.84 620.44 156.77 607.99 149.67 594.79 142.91 581.09 136.55 567.17 130.26 553.01 124.44 538.93 119.13 525.12 114 511.36 109.45 497.98 105.52 485.07 101.83 472.29 98.79 459.98 96.46 448.14 94.39 436.42 93.02 425.12 92.38 414.25 91.99 403.43 92.31 392.99 93.35 382.92 94.58 372.86 96.44 363.38 98.9 354.47 101.43 345.54 104.48 337.16 107.99 329.33 111.46 321.46 115.32 314.13 119.53 307.31 123.59 300.41 127.94 293.97 132.53 287.97 136.89 281.78 141.47 275.92 146.22 270.31 150.71 264.35 155.37 258.49 160.19 252.61 164.75 246.2 169.5 239.6 174.43 232.73 179.15 225.17 184.09 217.23 189.28 208.89 194.31 199.87 199.63 190.49 205.24 180.84 210.77 170.79 216.64 160.73 222.84 150.83 229.02 141.08 235.57 131.9 242.46 123.54 249.38 115.93 256.65 109.51 264.26 104.47 271.9 100.53 279.87 98.09 288.14 97.17 296.44 97.19 305.03 98.44 313.86 100.75 322.7 103.3 331.78 106.31 341.05 109.51 350.33 112.01 359.79 114.12 369.41 115.64" stroke-dasharray="5 2" transform="rotate(15.652173913043478, 400, 400)" opacity="0.59"></path><path d="M373.46 138.62C382.49 138.88 391.55 138.43 400.64 137.36 409.75 135.29 418.92 132.93 428.13 130.52 437.4 127.79 446.76 125.53 456.21 123.95 465.77 122.81 475.48 122.77 485.33 123.95 495.33 126.03 505.53 129.46 515.91 134.2 526.48 139.89 537.24 146.76 548.19 154.64 559.29 163.17 570.53 172.43 581.86 182.21 593.24 192.21 604.6 202.44 615.83 212.74 626.93 222.88 637.73 232.89 648.06 242.71 657.99 252.14 667.23 261.3 675.6 270.22 683.27 278.67 689.85 286.91 695.17 295 699.54 302.68 702.49 310.32 703.94 317.97 704.37 325.32 703.29 332.81 700.72 340.5 697.31 347.99 692.61 355.79 686.77 363.95 680.55 371.99 673.58 380.47 666.09 389.41 658.9 398.31 651.68 407.73 644.68 417.69 638.68 427.65 633.44 437.96 629.08 448.57 626.06 459.19 624 470.13 622.87 481.3 623.03 492.47 623.94 503.82 625.45 515.27 627.91 526.6 630.64 537.89 633.47 548.98 636.74 559.75 639.74 570.1 642.3 579.82 644.84 588.94 646.65 597.13 647.63 604.19 645.57 616.7 630.34 616.51 621.28 610.78 614.5 606.65 606.98 602.21 598.82 597.93 590.34 594.91 581.35 592.97 571.95 592.62 562.36 594.66 552.47 598.93 542.37 605.63 532.18 615 521.86 626.65 511.47 640.21 501.05 655.35 490.61 671.23 480.2 687.03 469.8 702.09 459.44 715.34 449.17 725.88 438.91 733.36 428.72 736.89 418.64 736.08 408.56 731.44 398.79 722.89 389.35 711.14 379.88 697.3 370.71 681.94 361.82 666.04 352.87 650.68 344.18 636.43 335.74 623.96 327.21 613.94 318.9 606.44 310.79 601.51 302.56 599.43 294.51 599.61 286.62 601.61 278.58 605.56 270.69 610.38 262.93 615.53 255.01 621.19 247.21 626.23 239.54 630.22 231.71 633.56 224.02 635.3 216.47 635.31 208.8 634.13 201.3 631.12 194 626.41 186.64 620.51 179.52 613.14 172.7 604.53 165.89 595.07 159.42 584.71 153.35 573.72 147.39 562.24 141.88 550.43 136.87 538.48 132.06 526.34 127.79 514.26 124.13 502.36 120.72 490.43 117.94 478.77 115.83 467.46 113.99 456.17 112.82 445.24 112.36 434.71 112.14 424.21 112.61 414.09 113.77 404.36 115.12 394.64 117.08 385.5 119.59 376.94 122.19 368.34 125.28 360.27 128.8 352.7 132.29 345.04 136.15 337.83 140.33 331.01 144.38 324.04 148.69 317.38 153.23 310.97 157.57 304.3 162.1 297.77 166.78 291.3 171.23 284.43 175.83 277.49 180.56 270.41 185.05 262.81 189.69 254.97 194.49 246.84 199.06 238.16 203.82 229.18 208.78 219.93 213.56 210.26 218.57 200.45 223.82 190.59 228.96 180.67 234.37 170.98 240.07 161.71 245.7 152.84 251.64 144.74 257.89 137.6 264.11 131.3 270.66 126.22 277.51 122.49 284.36 119.77 291.52 118.43 298.98 118.42 306.44 119.16 314.2 120.96 322.23 123.61 330.25 126.35 338.55 129.44 347.09 132.61 355.63 135.07 364.42 137.13 373.45 138.62" stroke-dasharray="3 6" transform="rotate(17.217391304347828, 400, 400)" opacity="0.55"></path><path d="M381.23 161.6C389.73 161.9 398.33 161.56 407.02 160.63 415.74 158.74 424.56 156.53 433.5 154.2 442.48 151.47 451.59 149.03 460.83 147.1 470.14 145.41 479.61 144.6 489.22 144.79 498.93 145.68 508.8 147.75 518.79 151.01 528.88 155.13 539.08 160.39 549.35 166.7 559.68 173.73 570.02 181.61 580.29 190.18 590.51 199.19 600.57 208.64 610.36 218.4 619.92 228.26 629.06 238.23 637.64 248.2 645.8 258.03 653.22 267.76 659.78 277.33 665.7 286.64 670.59 295.78 674.35 304.75 677.31 313.44 679.05 322.02 679.52 330.51 679.19 338.76 677.61 347.01 674.81 355.3 671.4 363.43 666.96 371.68 661.6 380.11 656.01 388.44 649.81 397.02 643.19 405.86 636.86 414.67 630.49 423.79 624.26 433.24 618.86 442.69 614.03 452.26 609.88 461.91 606.83 471.55 604.51 481.24 602.94 490.9 602.44 500.5 602.56 510 603.2 519.28 604.68 528.39 606.44 537.14 608.34 545.4 610.73 553.31 612.99 560.54 614.98 566.96 613.88 582.01 594.38 572.2 585.01 569.39 578.26 569.2 570.96 570.29 563.19 572.97 555.23 577.75 546.89 584.42 538.24 593 529.47 603.58 520.47 615.75 511.3 629.13 502.08 643.4 492.74 657.87 483.32 671.87 473.89 684.93 464.4 696.21 454.91 705 445.42 711.17 435.93 713.97 426.45 713.1 416.98 709.06 407.73 701.69 398.73 691.55 389.71 679.53 380.91 665.98 372.33 651.68 363.7 637.49 355.27 623.85 347.03 611.33 338.73 600.54 330.59 591.6 322.6 584.68 314.53 580.07 306.6 577.44 298.79 576.56 290.88 577.6 283.09 579.8 275.42 582.76 267.63 586.7 259.96 590.67 252.42 594.3 244.77 597.94 237.26 600.69 229.9 602.34 222.48 603.37 215.24 603.06 208.21 601.38 201.17 598.87 194.39 595.02 187.9 589.95 181.46 584.13 175.37 577.27 169.68 569.55 164.11 561.3 158.98 552.41 154.35 543.07 149.91 533.42 146 523.49 142.66 513.43 139.57 503.25 137.08 493.05 135.23 482.94 133.63 472.79 132.68 462.8 132.39 453.01 132.34 443.23 132.94 433.67 134.19 424.37 135.63 415.06 137.64 406.21 140.17 397.78 142.8 389.33 145.88 381.26 149.36 373.54 152.84 365.72 156.66 358.19 160.78 350.9 164.8 343.44 169.06 336.12 173.54 328.9 177.84 321.42 182.33 313.94 186.96 306.39 191.38 298.51 195.94 290.47 200.63 282.26 205.08 273.67 209.68 264.87 214.4 255.86 218.9 246.52 223.56 237.04 228.38 227.46 233.02 217.76 237.84 208.12 242.87 198.7 247.75 189.46 252.86 180.68 258.21 172.51 263.46 164.91 268.97 158.18 274.75 152.49 280.46 147.63 286.46 143.96 292.75 141.54 298.99 139.99 305.53 139.64 312.36 140.42 319.16 141.77 326.25 143.97 333.63 146.84 340.99 149.68 348.65 152.74 356.58 155.81 364.5 158.18 372.72 160.16 381.22 161.59" stroke-dasharray="1 5" transform="rotate(18.782608695652172, 400, 400)" opacity="0.50"></path><path d="M391.63 184.58C399.63 184.93 407.76 184.69 416 183.92 424.26 182.26 432.65 180.27 441.16 178.11 449.71 175.49 458.39 173.03 467.18 170.91 476.02 168.86 484.99 167.47 494.05 166.87 503.16 166.75 512.37 167.62 521.62 169.5 530.9 172.09 540.21 175.73 549.48 180.35 558.71 185.67 567.86 191.88 576.82 198.86 585.66 206.37 594.23 214.48 602.44 223.07 610.38 231.95 617.83 241.14 624.7 250.52 631.15 259.98 636.89 269.51 641.81 279.03 646.17 288.5 649.62 297.89 652.07 307.18 653.9 316.35 654.69 325.41 654.42 334.35 653.56 343.17 651.68 351.91 648.83 360.58 645.55 369.15 641.45 377.7 636.62 386.25 631.66 394.75 626.22 403.3 620.44 411.9 614.92 420.48 609.34 429.14 603.84 437.87 599.01 446.61 594.61 455.2 590.71 463.62 587.68 472.02 585.21 480.21 583.31 488.11 582.29 495.94 581.76 503.4 581.66 510.43 582.72 520.44 586.46 536.96 588.54 543.09 588.63 548.73 574.6 544.72 567.37 545.95 562.12 548.48 556.33 552.26 550.05 557.43 543.6 564.29 536.73 572.6 529.5 582.3 522.15 593.36 514.5 605.4 506.59 618.08 498.62 631.13 490.44 643.99 482.1 656.12 473.73 667.23 465.23 676.65 456.62 683.87 448.01 688.86 439.31 691.01 430.54 690.12 421.78 686.63 413.15 680.35 404.67 671.7 396.19 661.39 387.85 649.62 379.65 636.98 371.43 624.16 363.34 611.46 355.39 599.37 347.39 588.39 339.51 578.66 331.74 570.4 323.92 563.9 316.2 559 308.59 555.61 300.92 553.92 293.34 553.44 285.87 553.91 278.34 555.55 270.92 557.63 263.62 559.87 256.28 562.58 249.08 564.97 242.04 566.83 234.99 568.6 228.12 569.53 221.48 569.54 214.87 569.12 208.51 567.67 202.46 565.21 196.49 562.24 190.87 558.3 185.62 553.47 180.53 548.21 175.85 542.19 171.65 535.53 167.64 528.57 164.13 521.1 161.16 513.24 158.43 505.22 156.26 496.92 154.68 488.44 153.34 479.89 152.6 471.23 152.48 462.53 152.59 453.81 153.29 445.08 154.61 436.37 156.1 427.66 158.13 419.17 160.64 410.9 163.24 402.6 166.27 394.48 169.68 386.53 173.1 378.51 176.84 370.59 180.86 362.74 184.8 354.77 188.99 346.8 193.38 338.81 197.63 330.63 202.05 322.37 206.62 314 211.01 305.41 215.53 296.69 220.17 287.83 224.61 278.78 229.17 269.61 233.85 260.38 238.33 251.05 242.94 241.75 247.69 232.56 252.25 223.48 256.98 214.67 261.86 206.26 266.6 198.23 271.53 190.79 276.65 184.09 281.66 178.02 286.89 172.85 292.34 168.69 297.72 165.31 303.34 162.99 309.2 161.79 315.01 161.28 321.09 161.78 327.43 163.2 333.73 165 340.32 167.46 347.17 170.42 354.01 173.25 361.13 176.2 368.53 179.11 375.93 181.34 383.62 183.2 391.62 184.57" stroke-dasharray="4 2" transform="rotate(20.34782608695652, 400, 400)" opacity="0.46"></path><path d="M403.21 207.55C410.69 207.94 418.29 207.82 426 207.23 433.72 205.82 441.55 204.11 449.48 202.19 457.43 199.79 465.48 197.45 473.6 195.31 481.74 193.1 489.96 191.35 498.21 190.18 506.47 189.31 514.75 189.2 523 189.91 531.22 191.15 539.39 193.27 547.42 196.26 555.38 199.86 563.15 204.29 570.67 209.48 578.03 215.21 585.06 221.6 591.67 228.56 598.02 235.91 603.88 243.69 609.15 251.81 614.05 260.17 618.29 268.74 621.8 277.45 624.85 286.27 627.12 295.14 628.54 304 629.49 312.89 629.58 321.73 628.82 330.48 627.63 339.22 625.63 347.87 622.86 356.4 619.81 364.92 616.11 373.33 611.84 381.63 607.53 389.92 602.82 398.11 597.82 406.19 593.07 414.27 588.23 422.24 583.42 430.07 579.15 437.9 575.17 445.4 571.55 452.53 568.61 459.64 566.08 466.35 563.97 472.63 562.03 481.68 560.76 496.98 561.09 503.03 562.5 517.19 552.16 522.99 546.6 527.95 542.56 532.75 538.01 538.6 533.01 545.54 527.86 553.71 522.3 562.88 516.35 572.95 510.31 583.83 503.92 595.21 497.23 606.77 490.48 618.35 483.46 629.47 476.21 639.73 468.94 648.98 461.46 656.69 453.8 662.48 446.13 666.43 438.3 668.04 430.34 667.14 422.37 664.15 414.46 658.87 406.62 651.58 398.78 642.88 391 632.83 383.31 621.87 375.61 610.55 367.98 599.05 360.43 587.76 352.87 577.1 345.38 567.2 337.97 558.26 330.54 550.56 323.18 544.04 315.91 538.7 308.61 534.75 301.4 531.87 294.29 529.94 287.16 529.13 280.13 528.97 273.24 529.24 266.34 530.21 259.58 531.28 253 532.25 246.44 533.48 240.08 534.33 233.94 534.68 224.96 534.79 208.57 531.17 201.32 527.3 194.67 522.32 183.8 508.62 179.69 500.17 177.34 494.21 175.5 487.81 174.2 481.03 173.13 474.17 172.61 466.99 172.64 459.54 172.89 452.06 173.68 444.35 175.03 436.43 176.54 428.51 178.55 420.58 180.99 412.65 183.53 404.71 186.47 396.76 189.75 388.79 193.06 380.79 196.67 372.75 200.55 364.66 204.38 356.51 208.44 348.27 212.7 339.95 216.85 331.55 221.17 323.05 225.64 314.45 229.97 305.79 234.42 297.05 239 288.27 243.41 279.48 247.93 270.7 252.56 261.99 257.02 253.4 261.6 244.98 266.29 236.84 270.82 228.98 275.48 221.53 280.28 214.6 284.94 208.12 289.76 202.32 294.73 197.27 302.12 191.05 317.69 184.06 325.93 183.35 331.44 183.7 337.17 184.86 343.13 186.73 349.05 188.82 355.22 191.39 361.64 194.32 368.03 197.03 374.69 199.8 381.62 202.49 388.53 204.54 395.72 206.26 403.2 207.55" stroke-dasharray="5 6" transform="rotate(21.91304347826087, 400, 400)" opacity="0.42"></path><path d="M414.34 230.53C421.25 230.95 428.25 230.94 435.31 230.53 442.39 229.41 449.53 228 456.73 226.39 463.93 224.29 471.18 222.19 478.45 220.18 485.72 218 492.99 216.12 500.24 214.64 507.46 213.28 514.64 212.49 521.71 212.31 528.73 212.46 535.62 213.33 542.32 214.91 548.91 216.93 555.27 219.69 561.33 223.13 567.23 227.03 572.77 231.57 577.89 236.68 582.78 242.19 587.19 248.19 591.06 254.6 594.63 261.32 597.61 268.35 599.96 275.62 601.97 283.1 603.32 290.74 603.98 298.47 604.29 306.33 603.92 314.22 602.87 322.11 601.53 330.05 599.56 337.95 596.99 345.75 594.25 353.59 591 361.32 587.3 368.9 583.61 376.51 579.6 383.96 575.34 391.22 571.3 398.49 567.16 405.56 563 412.39 559.26 419.22 555.71 425.64 552.39 431.62 548.35 440.33 542.49 455.37 540.6 461.62 539.44 481.37 538.12 489.95 536.53 492.49 534.47 496.21 528.06 507.3 523.69 515.15 520.53 521.53 516.94 528.68 512.93 536.59 508.84 545.28 504.35 554.57 499.5 564.34 494.57 574.49 489.3 584.78 483.71 594.94 478.07 604.87 472.14 614.21 465.95 622.66 459.73 630.17 453.26 636.32 446.57 640.85 439.87 643.9 432.97 645.04 425.87 644.16 418.77 641.64 411.66 637.25 404.56 631.21 397.46 623.99 390.37 615.58 383.31 606.28 376.25 596.52 369.22 586.4 362.23 576.22 355.24 566.31 348.29 556.75 341.4 547.75 334.51 539.54 327.67 532.1 320.91 525.51 314.15 519.92 307.47 515.18 300.88 511.24 294.3 508.26 287.83 505.93 281.5 504.13 275.18 503.06 269.02 502.3 263.03 501.72 254.21 501.49 237.79 500.65 230.29 499.53 223.27 497.97 211.12 492.12 206.1 487.73 201.77 482.63 195.6 469.63 193.84 461.85 193.02 456.45 192.7 450.62 192.88 444.39 193.24 438.14 194.09 431.52 195.45 424.54 196.95 417.56 198.9 410.4 201.24 403.09 203.67 395.8 206.47 388.35 209.58 380.79 212.73 373.23 216.17 365.54 219.85 357.75 223.51 349.95 227.39 342.05 231.46 334.07 235.47 326.1 239.64 318.06 243.95 310 248.16 301.98 252.5 293.97 256.96 286.03 261.29 278.21 265.73 270.51 270.27 263.03 274.68 255.76 279.2 248.79 283.81 242.2 288.3 235.96 292.9 230.19 297.61 224.99 304.57 218.21 318.98 208.88 326.48 206.52 334.03 205.65 349.89 208.05 358.25 210.97 363.85 213.17 369.65 215.71 375.67 218.48 381.66 221 387.88 223.51 394.32 225.94 400.75 227.78 407.42 229.33 414.33 230.53" stroke-dasharray="3 4" transform="rotate(23.47826086956522, 400, 400)" opacity="0.38"></path><path d="M423.46 253.51C436 253.71 448.7 252.65 461.38 250.62 474.06 246.79 486.68 243.07 498.97 240.06 511.14 236.99 522.8 235.69 533.63 236.44 544.06 238.31 553.35 242.54 561.15 248.9 568.19 256.55 573.43 266.02 576.61 276.82 578.82 288.47 578.88 300.98 576.76 313.85 573.93 327.12 569.27 340.42 563.01 353.36 556.91 366.44 549.96 378.97 542.58 390.64 536.48 402.31 530.88 412.46 526 421.06 522.77 429.62 520.15 436.67 518.02 442.35 516.72 450.7 513.86 465.7 510.78 475.14 508.43 483.8 504.79 494.26 499.78 506.78 494.59 521.62 487.99 538.23 480.08 555.83 471.97 573.81 462.63 590.7 452.19 604.86 441.67 615.79 430.15 621.57 417.76 621.18 405.38 615.77 392.77 604.91 380.15 590.12 367.56 573.45 354.95 555.67 342.51 538.3 330.13 522.64 317.92 508.98 306.08 497.67 294.36 489.18 283.08 482.68 272.46 477.62 262.1 474.42 252.53 471.53 243.98 468.28 235.89 465.65 228.98 461.87 223.48 456.62 218.6 451.35 215.26 444.4 213.6 435.73 212.62 426.97 213.35 416.56 215.87 404.58 218.91 392.61 223.43 379.74 229.18 366.27 235.08 352.9 241.98 339.03 249.66 324.99 257.17 311.21 265.31 297.52 273.92 284.34 282.18 271.87 290.88 260.4 299.93 250.48 308.6 241.86 317.68 235.27 327.15 231.12 336.31 228.5 345.98 228.3 356.14 230.45 366.11 233.3 376.7 237.62 387.91 242.86 399.05 246.98 410.9 250.7 423.45 253.51" stroke-dasharray="2 7" transform="rotate(25.043478260869563, 400, 400)" opacity="0.34"></path><path d="M429.27 276.49C440.39 276.83 451.45 276.22 462.29 274.83 473.1 271.85 483.63 268.83 493.68 266.17 503.58 263.1 512.83 261.19 521.2 260.69 529.22 260.73 536.14 262.54 541.71 266.06 546.73 270.44 550.24 276.44 552.06 283.77 553.27 291.78 552.79 300.81 550.64 310.48 548.11 320.52 544.17 330.9 538.99 341.28 534.02 351.79 528.32 362.1 522.16 371.95 516.94 381.81 511.93 390.68 507.31 398.58 503.89 406.53 500.81 413.67 498.02 420.15 496.22 426.99 494.41 433.6 492.41 440.29 490.98 447.91 489.01 456.21 486.36 465.49 483.89 476.23 480.48 488.29 476.07 501.63 471.63 516.18 466.09 531.5 459.48 546.85 452.77 561.85 445.01 575.39 436.26 586.34 427.46 594.62 417.73 598.81 407.16 598.2 396.59 593.86 385.74 585.24 374.79 573.36 363.89 559.74 352.93 544.68 342.09 529.32 331.34 514.63 320.75 500.88 310.51 488.53 300.43 477.97 290.77 468.89 281.73 461.11 272.97 454.87 264.94 449.3 257.84 443.99 251.15 439.47 245.5 434.57 241.1 428.97 237.21 423.6 234.64 417.18 233.53 409.6 232.96 402.02 233.85 393.19 236.29 383.12 239.16 373.06 243.32 362.3 248.55 351.14 253.95 340.09 260.26 328.79 267.28 317.58 274.24 306.71 281.8 296.21 289.82 286.48 297.63 277.43 305.86 269.52 314.42 263.12 322.73 257.74 331.4 254.13 340.37 252.49 349.14 251.81 358.29 252.95 367.8 255.78 377.18 258.8 387.01 262.82 397.26 267.4 407.46 270.89 418.14 274.04 429.27 276.49" stroke-dasharray="2 1" transform="rotate(26.60869565217391, 400, 400)" opacity="0.30"></path><path d="M430.97 299.47C440.54 299.92 449.86 299.71 458.81 298.95 467.73 296.86 476.23 294.67 484.13 292.65 491.92 290.04 499.01 288.14 505.24 287.15 519.17 289.13 526.98 305.85 524.69 315.51 522.58 322.48 519.39 330.03 515.26 337.95 511.33 345.96 506.77 354.18 501.74 362.47 497.38 370.76 493.01 378.72 488.79 386.32 485.4 394.01 482.13 401.52 478.98 408.96 476.56 416.72 474.09 424.71 471.47 433.08 469.34 442.11 466.84 451.83 463.88 462.29 461.15 473.56 457.77 485.61 453.69 498.21 449.67 511.22 444.84 524.3 439.21 536.83 433.55 548.68 427.05 559.01 419.77 567.08 412.45 573.09 404.35 575.95 395.54 575.22 386.73 571.83 377.67 565.18 368.51 555.95 359.39 545.25 350.22 533.07 341.16 520.19 332.2 507.36 323.39 494.7 314.92 482.67 306.6 471.58 298.68 461.36 291.33 452.08 284.22 443.82 277.77 436.24 272.13 429.16 266.83 422.76 262.43 416.46 259.07 410.04 256.12 403.91 254.27 397.37 253.63 390.29 253.41 383.26 254.42 375.57 256.7 367.2 259.34 358.83 263.07 350.22 267.7 341.56 272.51 332.99 278.11 324.52 284.36 316.42 290.61 308.59 297.42 301.36 304.66 294.99 311.8 289.12 319.34 284.36 327.18 280.9 334.88 278.08 342.89 276.67 351.14 276.73 359.28 277.25 367.7 279.05 376.36 281.99 384.94 284.8 393.82 288.23 402.93 292.02 412.02 294.82 421.39 297.38 430.97 299.47" stroke-dasharray="1 3" transform="rotate(28.17391304347826, 400, 400)" opacity="0.26"></path><path d="M428.31 322.45C436.24 322.97 443.81 323.09 450.93 322.88 458.02 321.65 464.62 320.34 470.63 319.11 496.87 319.74 496.2 337.43 491.82 345.97 488.83 351.89 485.31 358.36 481.32 365.31 477.78 372.26 474.1 379.37 470.39 386.61 467.23 393.91 464.02 401.46 460.82 409.24 458.1 417.24 455.29 425.64 452.34 434.43 449.76 443.58 446.91 453.22 443.75 463.25 440.8 473.6 437.42 484.24 433.58 494.92 429.82 505.54 425.51 515.82 420.65 525.32 415.8 534.09 410.36 541.5 404.34 547.09 398.31 551.2 391.7 553.01 384.56 552.25 377.41 549.68 370.1 544.75 362.73 537.87 355.4 529.86 348.07 520.53 340.86 510.38 333.72 499.96 326.76 489.27 320.1 478.68 313.57 468.43 307.41 458.53 301.74 449.16 296.26 440.32 291.35 431.95 287.11 424.06 283.13 416.61 279.89 409.44 277.49 402.5 275.39 395.79 274.18 389.1 273.94 382.38 274 375.74 275.04 368.95 277.12 362.05 279.47 355.14 282.69 348.45 286.67 342.07 290.79 335.73 295.59 329.81 300.94 324.44 306.33 319.23 312.23 314.72 318.5 311.03 324.76 307.62 331.37 305.16 338.25 303.72 345.07 302.57 352.16 302.45 359.43 303.35 366.65 304.35 374.08 306.2 381.64 308.78 389.18 311.06 396.88 313.75 404.68 316.66 412.47 318.76 420.38 320.73 428.31 322.45" stroke-dasharray="6 5" transform="rotate(29.73913043478261, 400, 400)" opacity="0.22"></path><path d="M421.67 345.43C434.17 345.68 445.06 345.46 453.9 345.15 465.68 342.39 475.87 345.28 473.82 353.09 471.6 359.25 467.19 368.1 460.9 379.53 455.69 390.95 449.71 404.05 443.43 418.28 438.35 432.86 432.6 448.93 426.18 465.53 420.37 482.15 413.31 498.32 404.96 511.98 396.73 523.23 386.92 529.61 375.74 529.27 364.56 524.51 353.17 513.78 342.29 499.39 331.61 483.61 321.74 466.56 313.44 450.04 305.66 434.21 299.78 419.3 296.47 405.8 293.92 392.81 294.13 380.55 297.54 369.35 301.67 358.14 308.44 348.93 317.08 342.07 325.95 335.42 336.44 331.5 347.81 330.59 359.18 329.83 371.41 331.71 383.89 335.78 396.37 338.53 409.18 341.97 421.67 345.43" stroke-dasharray="2 6" transform="rotate(31.304347826086957, 400, 400)" opacity="0.17"></path><path d="M411.99 368.41C421.15 368.93 428.93 369.55 435.08 370.36 446.84 372.1 446.37 388.2 440.48 400.46 436.63 409.38 431.91 419.78 426.71 431.01 422.14 442.3 416.92 454.33 411.2 466.17 405.86 477.62 399.73 488.17 392.91 496.55 386.19 503.37 378.6 506.94 370.34 506.29 362.07 503.22 353.93 496.31 346.39 486.82 338.95 476.22 332.26 464.17 326.82 451.89 321.67 439.59 317.94 427.51 316.07 416.41 314.63 405.48 315.16 395.39 317.96 386.71 321.2 378.02 326.36 371.44 332.88 366.97 339.6 362.47 347.56 360.06 356.2 359.7 364.91 359.08 374.26 360.12 383.72 362.55 393.22 363.96 402.82 365.99 411.99 368.41" stroke-dasharray="2 6" transform="rotate(32.869565217391305, 400, 400)" opacity="0.13"></path><path d="M400.62 391.39C412.5 391.66 420.51 393.97 423.76 398.43 426.97 401.48 425.81 408.9 420.06 421.24 415.3 433.58 407.54 448.82 398.63 462.66 390.37 475.21 380.08 483.63 369.1 483.31 358.11 478.87 348.47 466.63 342.18 451.86 336.35 436.33 334.52 420.49 338.38 408.43 343.05 396.37 352.49 389.99 363.86 388.77 375.48 386.51 388.72 387.61 400.62 391.39" stroke-dasharray="2 5" transform="rotate(34.434782608695656, 400, 400)" opacity="0.09"></path></g></svg>